<svg width="23" height="17" viewBox="0 0 23 17" fill="none" xmlns="http://www.w3.org/2000/svg">
<path d="M23 8.49996V1.76315C23 1.42814 22.8747 1.10686 22.6516 0.869971C22.4285 0.633084 22.126 0.5 21.8105 0.5H15.4665C15.151 0.5 14.8485 0.633084 14.6254 0.869971C14.4023 1.10686 14.277 1.42814 14.277 1.76315C14.277 2.09816 14.4023 2.41945 14.6254 2.65633C14.8485 2.89322 15.151 3.0263 15.4665 3.0263H18.9359L12.2945 10.0789L9.1711 6.76102C9.0606 6.64326 8.92928 6.54982 8.7847 6.48607C8.64011 6.42232 8.4851 6.3895 8.32854 6.3895C8.17199 6.3895 8.01697 6.42232 7.87239 6.48607C7.7278 6.54982 7.59649 6.64326 7.48598 6.76102L0.349 14.3399C0.125539 14.5772 0 14.8991 0 15.2347C0 15.4008 0.0308206 15.5654 0.0907021 15.7189C0.150584 15.8724 0.238353 16.0119 0.349 16.1294C0.459647 16.2469 0.591003 16.3401 0.73557 16.4037C0.880137 16.4673 1.03508 16.5 1.19156 16.5C1.50758 16.5 1.81066 16.3667 2.03412 16.1294L8.32953 9.44732L11.453 12.7652C11.5635 12.883 11.6948 12.9764 11.8394 13.0401C11.9839 13.1039 12.139 13.1367 12.2955 13.1367C12.4521 13.1367 12.6071 13.1039 12.7517 13.0401C12.8963 12.9764 13.0276 12.883 13.1381 12.7652L20.621 4.81577V8.49996C20.621 8.83497 20.7463 9.15625 20.9694 9.39314C21.1925 9.63003 21.495 9.76311 21.8105 9.76311C22.126 9.76311 22.4285 9.63003 22.6516 9.39314C22.8747 9.15625 23 8.83497 23 8.49996Z" fill="#FCB11F"/>
</svg>
