<svg width="29" height="30" viewBox="0 0 29 30" fill="none" xmlns="http://www.w3.org/2000/svg">
<g id="Group 59">
<path id="Vector" d="M10.5938 13.5556H10.6094M18.4062 13.5556H18.4219M10.5938 19.3333C11.1029 19.8138 11.7107 20.1954 12.3814 20.456C13.0522 20.7165 13.7724 20.8507 14.5 20.8507C15.2276 20.8507 15.9478 20.7165 16.6186 20.456C17.2893 20.1954 17.8971 19.8138 18.4062 19.3333M6.6875 4.88889H8.25V2H20.75V4.88889H22.3125C23.5557 4.88889 24.748 5.34543 25.6271 6.15809C26.5061 6.97075 27 8.07295 27 9.22222V22.2222C27 23.3715 26.5061 24.4737 25.6271 25.2864C24.748 26.099 23.5557 26.5556 22.3125 26.5556V28H6.6875V26.5556C5.4443 26.5556 4.25201 26.099 3.37294 25.2864C2.49386 24.4737 2 23.3715 2 22.2222V9.22222C2 8.07295 2.49386 6.97075 3.37294 6.15809C4.25201 5.34543 5.4443 4.88889 6.6875 4.88889Z" stroke="#FFD540" stroke-width="3" stroke-linecap="round" stroke-linejoin="round"/>
</g>
</svg>
