<svg width="59" height="59" viewBox="0 0 59 59" fill="none" xmlns="http://www.w3.org/2000/svg">
<path d="M39.3318 3.93359H19.669C18.2786 3.93359 17.3267 5.33976 17.844 6.62989L19.6671 11.8003H39.3337L41.1568 6.62989C41.6741 5.33976 40.7222 3.93359 39.3318 3.93359Z" fill="#1A1919"/>
<path d="M39.3337 15.7324H19.6671C19.6671 15.7324 5.90039 27.5324 5.90039 41.2991C5.90039 49.1658 11.8004 53.0991 15.7337 53.0991C19.6671 53.0991 29.5004 53.0991 29.5004 53.0991C29.5004 53.0991 39.3337 53.0991 43.2671 53.0991C47.2004 53.0991 53.1004 49.1658 53.1004 41.2991C53.1004 27.5324 39.3337 15.7324 39.3337 15.7324ZM31.4671 43.0652V46.2158H27.5337V43.075C24.6408 42.5322 22.8216 40.7543 22.7154 38.1564H26.1217C26.2849 39.5212 27.6616 40.3964 29.6459 40.3964C31.4769 40.3964 32.7729 39.5094 32.7729 38.237C32.7729 37.1632 31.9332 36.5457 29.8682 36.1012L27.6753 35.6351C24.6073 34.994 23.1009 33.3951 23.1009 30.8286C23.1009 28.2463 24.8099 26.4055 27.5337 25.7998V22.6158H31.4671V25.7939C34.1221 26.3878 35.896 28.1972 35.9825 30.6417H32.6687C32.5055 29.3123 31.2684 28.4253 29.5653 28.4253C27.8032 28.4253 26.6369 29.2415 26.6369 30.5257C26.6369 31.5641 27.4413 32.16 29.4139 32.5789L31.4435 33.0116C34.8281 33.7235 36.2854 35.1828 36.2854 37.7945C36.2854 40.6068 34.48 42.4929 31.4671 43.0652Z" fill="#1A1919"/>
<path d="M35.3996 7.8668H23.5996C23.5996 4.60803 26.2408 1.9668 29.4996 1.9668C32.7584 1.9668 35.3996 4.60803 35.3996 7.8668Z" fill="#1A1919"/>
</svg>
