<svg width="27" height="18" viewBox="0 0 27 18" fill="none" xmlns="http://www.w3.org/2000/svg">
<path d="M27 9.00005V16.579C27 16.9558 26.8529 17.3173 26.591 17.5838C26.3291 17.8503 25.974 18 25.6036 18H18.1563C17.786 18 17.4308 17.8503 17.169 17.5838C16.9071 17.3173 16.76 16.9558 16.76 16.579C16.76 16.2021 16.9071 15.8406 17.169 15.5741C17.4308 15.3076 17.786 15.1579 18.1563 15.1579H22.2291L14.4327 7.22374L10.7661 10.9564C10.6364 11.0888 10.4822 11.1939 10.3125 11.2657C10.1427 11.3374 9.96077 11.3743 9.77699 11.3743C9.5932 11.3743 9.41123 11.3374 9.2415 11.2657C9.07177 11.1939 8.91762 11.0888 8.78789 10.9564L0.409696 2.43008C0.147372 2.16312 0 1.80105 0 1.42351C0 1.23657 0.0361807 1.05146 0.106476 0.878756C0.176772 0.706048 0.279806 0.549122 0.409696 0.416937C0.539585 0.284751 0.693786 0.179896 0.863495 0.108358C1.0332 0.0368203 1.2151 0 1.39879 0C1.76977 0 2.12556 0.149977 2.38788 0.416937L9.77815 7.93426L13.4448 4.20165C13.5745 4.06917 13.7287 3.96406 13.8984 3.89234C14.0681 3.82061 14.2501 3.78369 14.4339 3.78369C14.6176 3.78369 14.7996 3.82061 14.9694 3.89234C15.1391 3.96406 15.2932 4.06917 15.423 4.20165L24.2073 13.1448V9.00005C24.2073 8.62316 24.3544 8.26171 24.6163 7.99522C24.8781 7.72872 25.2333 7.579 25.6036 7.579C25.974 7.579 26.3291 7.72872 26.591 7.99522C26.8529 8.26171 27 8.62316 27 9.00005Z" fill="#363535"/>
</svg>
