<svg width="37" height="32" viewBox="0 0 37 32" fill="none" xmlns="http://www.w3.org/2000/svg">
<path fill-rule="evenodd" clip-rule="evenodd" d="M6.52637 11.4927L19.4211 4.49756L30.459 10.4854C31.0232 10.7914 31.4921 11.2335 31.8182 11.767C32.1443 12.3004 32.316 12.9063 32.3158 13.5231V21.704C32.316 22.3207 32.1443 22.9266 31.8182 23.4601C31.4921 23.9936 31.0232 24.4357 30.459 24.7416L21.2485 29.7379C20.6919 30.0397 20.0621 30.1985 19.4211 30.1985C18.7802 30.1985 18.1503 30.0397 17.5937 29.7379L8.38321 24.7416C7.81905 24.4357 7.35015 23.9936 7.02405 23.4601C6.69795 22.9266 6.52625 22.3207 6.52637 21.704V16.8038" fill="#eae8e8"/>
<path d="M6.52637 11.4927L19.4211 4.49756L30.459 10.4854C31.0232 10.7914 31.4921 11.2335 31.8182 11.767C32.1443 12.3004 32.316 12.9063 32.3158 13.5231V21.704C32.316 22.3207 32.1443 22.9266 31.8182 23.4601C31.4921 23.9936 31.0232 24.4357 30.459 24.7416L21.2485 29.7379C20.6919 30.0397 20.0621 30.1985 19.4211 30.1985C18.7802 30.1985 18.1503 30.0397 17.5937 29.7379L8.38321 24.7416C7.81905 24.4357 7.35015 23.9936 7.02405 23.4601C6.69795 22.9266 6.52625 22.3207 6.52637 21.704V16.8038" stroke="#1C0F0F" stroke-width="2" stroke-linecap="round" stroke-linejoin="round"/>
<path fill-rule="evenodd" clip-rule="evenodd" d="M17.6748 17.5961C18.2115 17.8704 18.8116 18.014 19.4211 18.014C20.0307 18.014 20.6307 17.8704 21.1674 17.5961L31.3948 12.3672M19.4211 18.488V29.8551V18.488Z" fill="#eae8e8"/>
<path d="M17.6748 17.5961C18.2115 17.8704 18.8116 18.014 19.4211 18.014C20.0307 18.014 20.6307 17.8704 21.1674 17.5961L31.3948 12.3672M19.4211 18.488V29.8551" stroke="#1C0F0F" stroke-width="2" stroke-linecap="round" stroke-linejoin="round"/>
<path fill-rule="evenodd" clip-rule="evenodd" d="M6.52632 11.4928L19.4211 18.4879L13.8947 20.2367L1 13.2416L6.52632 11.4928ZM19.4211 4.49759L32.3158 11.4928L36 7.99518L23.1053 1L19.4211 4.49759Z" fill="#eae8e8" stroke="#1C0F0F" stroke-width="2" stroke-linecap="round" stroke-linejoin="round"/>
</svg>
