<svg width="45" height="21" viewBox="0 0 45 21" fill="white" xmlns="http://www.w3.org/2000/svg">
<path d="M44.8163 19.0181L39.6659 10.3294L44.7637 1.995C44.8848 1.79639 44.9508 1.56923 44.9551 1.33675C44.9594 1.10427 44.9018 0.874826 44.7882 0.671885C44.6746 0.468944 44.5091 0.299794 44.3085 0.18174C44.108 0.0636866 43.8797 0.000967503 43.6469 0H2.62775C1.93083 0 1.26245 0.276562 0.76965 0.768845C0.276852 1.26113 0 1.92881 0 2.625L0 18.375C0 19.0712 0.276852 19.7389 0.76965 20.2312C1.26245 20.7234 1.93083 21 2.62775 21H43.6864C43.9183 21 44.146 20.9386 44.3465 20.8222C44.547 20.7057 44.713 20.5384 44.8278 20.3371C44.9426 20.1358 45.002 19.9077 45 19.676C44.9979 19.4444 44.9346 19.2174 44.8163 19.0181ZM13.8088 14.6737H12.3373L8.05406 8.9775V14.6869H6.56938V6.5625H8.05406L12.3504 12.2719V6.5625H13.822L13.8088 14.6737ZM22.1257 7.875H17.4877V9.83062H21.6921V11.1431H17.4877V13.2563H22.1257V14.5688H16.003V6.5625H22.1125L22.1257 7.875ZM33.0177 14.6475H31.533L29.4965 8.62313L27.46 14.6737H25.9885L23.3607 6.5625H24.9636L26.6979 12.3769L28.695 6.5625H30.298L32.2162 12.3769L33.9637 6.5625H35.5797L33.0177 14.6475Z" fill="#121010"/>
</svg>
