<svg width="35" height="29" viewBox="0 0 35 29" fill="none" xmlns="http://www.w3.org/2000/svg">
    <path d="M19.4444 3.88235V4.88235H20.4444H22V21H1V4.88235H2.55556H3.55556V3.88235V2.58824C3.55556 2.16294 3.72249 1.75758 4.01565 1.46068L3.30962 0.763569L4.01565 1.46068C4.30837 1.1642 4.70268 1 5.11111 1H7.66667C8.0751 1 8.4694 1.1642 8.76213 1.46068C9.05529 1.75758 9.22222 2.16294 9.22222 2.58824V3.88235V4.88235H10.2222H12.7778H13.7778V3.88235V2.58824C13.7778 2.16294 13.9447 1.75758 14.2379 1.46068C14.5306 1.1642 14.9249 1 15.3333 1H17.8889C18.2973 1 18.6916 1.1642 18.9844 1.46068C19.2775 1.75758 19.4444 2.16294 19.4444 2.58824V3.88235Z" fill="#eae8e8" stroke="black" stroke-width="2"/>
    <path d="M31.4444 10.8824V11.8824H32.4444H34V28H13V11.8824H14.5556H15.5556V10.8824V9.58824C15.5556 9.16294 15.7225 8.75758 16.0156 8.46068L15.3096 7.76357L16.0156 8.46068C16.3084 8.1642 16.7027 8 17.1111 8H19.6667C20.0751 8 20.4694 8.1642 20.7621 8.46068C21.0553 8.75758 21.2222 9.16294 21.2222 9.58824V10.8824V11.8824H22.2222H24.7778H25.7778V10.8824V9.58824C25.7778 9.16294 25.9447 8.75758 26.2379 8.46068C26.5306 8.1642 26.9249 8 27.3333 8H29.8889C30.2973 8 30.6916 8.1642 30.9844 8.46068C31.2775 8.75758 31.4444 9.16294 31.4444 9.58824V10.8824Z" fill="#eae8e8" stroke="black" stroke-width="2"/>
</svg>
