<svg width="41" height="32" viewBox="0 0 41 32" fill="none" xmlns="http://www.w3.org/2000/svg">
    <path d="M19.4444 4.88235V5.88235H20.4444H22V22H1V5.88235H2.55556H3.55556V4.88235V3.58824C3.55556 3.16294 3.72249 2.75758 4.01565 2.46068L3.30962 1.76357L4.01565 2.46068C4.30837 2.1642 4.70268 2 5.11111 2H7.66667C8.0751 2 8.4694 2.1642 8.76213 2.46068C9.05529 2.75758 9.22222 3.16294 9.22222 3.58824V4.88235V5.88235H10.2222H12.7778H13.7778V4.88235V3.58824C13.7778 3.16294 13.9447 2.75758 14.2379 2.46068C14.5306 2.1642 14.9249 2 15.3333 2H17.8889C18.2973 2 18.6916 2.1642 18.9844 2.46068C19.2775 2.75758 19.4444 3.16294 19.4444 3.58824V4.88235Z" fill="#eae8e8" stroke="black" stroke-width="2"/>
    <path fill-rule="evenodd" clip-rule="evenodd" d="M10.5264 11.4927L23.4211 4.49756L34.459 10.4854C35.0232 10.7914 35.4921 11.2335 35.8182 11.767C36.1443 12.3004 36.316 12.9063 36.3158 13.5231V21.704C36.316 22.3207 36.1443 22.9266 35.8182 23.4601C35.4921 23.9936 35.0232 24.4357 34.459 24.7416L25.2485 29.7379C24.6919 30.0397 24.0621 30.1985 23.4211 30.1985C22.7802 30.1985 22.1503 30.0397 21.5937 29.7379L12.3832 24.7416C11.8191 24.4357 11.3502 23.9936 11.0241 23.4601C10.698 22.9266 10.5263 22.3207 10.5264 21.704V16.8038" fill="#eae8e8"/>
    <path d="M10.5264 11.4927L23.4211 4.49756L34.459 10.4854C35.0232 10.7914 35.4921 11.2335 35.8182 11.767C36.1443 12.3004 36.316 12.9063 36.3158 13.5231V21.704C36.316 22.3207 36.1443 22.9266 35.8182 23.4601C35.4921 23.9936 35.0232 24.4357 34.459 24.7416L25.2485 29.7379C24.6919 30.0397 24.0621 30.1985 23.4211 30.1985C22.7802 30.1985 22.1503 30.0397 21.5937 29.7379L12.3832 24.7416C11.8191 24.4357 11.3502 23.9936 11.0241 23.4601C10.698 22.9266 10.5263 22.3207 10.5264 21.704V16.8038" stroke="#1C0F0F" stroke-width="2" stroke-linecap="round" stroke-linejoin="round"/>
    <path fill-rule="evenodd" clip-rule="evenodd" d="M21.6748 17.5961C22.2115 17.8704 22.8116 18.014 23.4211 18.014C24.0307 18.014 24.6307 17.8704 25.1674 17.5961L35.3948 12.3672M23.4211 18.488V29.8551V18.488Z" fill="#eae8e8"/>
    <path d="M21.6748 17.5961C22.2115 17.8704 22.8116 18.014 23.4211 18.014C24.0307 18.014 24.6307 17.8704 25.1674 17.5961L35.3948 12.3672M23.4211 18.488V29.8551" stroke="#1C0F0F" stroke-width="2" stroke-linecap="round" stroke-linejoin="round"/>
    <path fill-rule="evenodd" clip-rule="evenodd" d="M10.5263 11.4928L23.4211 18.4879L17.8947 20.2367L5 13.2416L10.5263 11.4928ZM23.4211 4.49759L36.3158 11.4928L40 7.99518L27.1053 1L23.4211 4.49759Z" fill="#eae8e8" stroke="#1C0F0F" stroke-width="2" stroke-linecap="round" stroke-linejoin="round"/>
</svg>
