<svg width="23" height="22" viewBox="0 0 23 22" fill="none" xmlns="http://www.w3.org/2000/svg">
<path d="M19.4444 3.88235V4.88235H20.4444H22V21H1V4.88235H2.55556H3.55556V3.88235V2.58824C3.55556 2.16294 3.72249 1.75758 4.01565 1.46068L3.30962 0.763569L4.01565 1.46068C4.30837 1.1642 4.70268 1 5.11111 1H7.66667C8.0751 1 8.4694 1.1642 8.76213 1.46068C9.05529 1.75758 9.22222 2.16294 9.22222 2.58824V3.88235V4.88235H10.2222H12.7778H13.7778V3.88235V2.58824C13.7778 2.16294 13.9447 1.75758 14.2379 1.46068C14.5306 1.1642 14.9249 1 15.3333 1H17.8889C18.2973 1 18.6916 1.1642 18.9844 1.46068C19.2775 1.75758 19.4444 2.16294 19.4444 2.58824V3.88235Z" fill="#eae8e8" stroke="black" stroke-width="2"/>
</svg>
