<svg width="56" height="56" viewBox="0 0 56 56" fill="none" xmlns="http://www.w3.org/2000/svg">
<path d="M41.0663 50.4003C43.1282 50.4003 44.7997 48.7288 44.7997 46.6669C44.7997 44.6051 43.1282 42.9336 41.0663 42.9336C39.0045 42.9336 37.333 44.6051 37.333 46.6669C37.333 48.7288 39.0045 50.4003 41.0663 50.4003Z" fill="white"/>
<path d="M22.4003 50.4003C24.4622 50.4003 26.1337 48.7288 26.1337 46.6669C26.1337 44.6051 24.4622 42.9336 22.4003 42.9336C20.3385 42.9336 18.667 44.6051 18.667 46.6669C18.667 48.7288 20.3385 50.4003 22.4003 50.4003Z" fill="white"/>
<path d="M17.879 34.6543C18.3457 36.2409 19.8035 37.3329 21.4593 37.3329H41.9478C43.6315 37.3329 45.1062 36.2055 45.5505 34.5815L50.4001 16.7996H41.0667H12.6278L17.879 34.6543Z" fill="white"/>
<path d="M3.7334 5.59961H7.239C8.48033 5.59961 9.5742 6.41721 9.92513 7.61001L12.6278 16.7996M12.6278 16.7996L17.879 34.6543C18.3457 36.2409 19.8035 37.3329 21.4593 37.3329H41.9478C43.6315 37.3329 45.1062 36.2055 45.5505 34.5815L50.4001 16.7996H41.0667H12.6278Z" stroke="white" stroke-width="4" stroke-miterlimit="10" stroke-linecap="round" stroke-linejoin="round"/>
<path d="M29.4736 16.8008H42.933" stroke="white" stroke-width="2" stroke-miterlimit="10" stroke-linejoin="round"/>
<path d="M13.0664 16.8008H29.8664" stroke="white" stroke-width="2" stroke-miterlimit="10" stroke-linejoin="round"/>
</svg>
