<svg width="27" height="26" viewBox="0 0 27 26" fill="none" xmlns="http://www.w3.org/2000/svg">
<path d="M7.19985 1.89519C7.05063 1.59675 7.1716 1.23384 7.47004 1.08462C7.76849 0.935394 8.1314 1.05636 8.28062 1.35481L19.7598 24.3131C19.909 24.6116 19.788 24.9745 19.4896 25.1237C19.1911 25.2729 18.8282 25.152 18.679 24.8535L7.19985 1.89519ZM20.0501 1.625C20.0501 1.29133 20.3206 1.02083 20.6543 1.02083C20.988 1.02083 21.2585 1.29133 21.2585 1.625V5.32552H24.959C25.2927 5.32552 25.5632 5.59602 25.5632 5.92969C25.5632 6.26336 25.2927 6.53385 24.959 6.53385H21.2585V10.2344C21.2585 10.568 20.988 10.8385 20.6543 10.8385C20.3206 10.8385 20.0501 10.568 20.0501 10.2344V6.53385H16.3496C16.0159 6.53385 15.7454 6.26336 15.7454 5.92969C15.7454 5.59602 16.0159 5.32552 16.3496 5.32552H20.0501V1.625ZM10.61 19.6745C10.9437 19.6745 11.2142 19.945 11.2142 20.2786C11.2142 20.6123 10.9437 20.8828 10.61 20.8828H2.00065C1.66698 20.8828 1.39648 20.6123 1.39648 20.2786C1.39648 19.945 1.66698 19.6745 2.00065 19.6745H10.61Z" stroke="#111111" stroke-width="1.20833" stroke-linecap="round" stroke-linejoin="round"/>
</svg>
