<svg width="25" height="23" viewBox="0 0 25 23" fill="none" xmlns="http://www.w3.org/2000/svg">
<path d="M11.3931 2.09091V8.36364C11.3931 8.91818 11.1625 9.45001 10.7521 9.84213C10.3418 10.2343 9.78521 10.4545 9.20487 10.4545H2.64033C2.05999 10.4545 1.50342 10.2343 1.09305 9.84213C0.682688 9.45001 0.452148 8.91818 0.452148 8.36364V2.09091C0.452148 1.53637 0.682688 1.00453 1.09305 0.612413C1.50342 0.220291 2.05999 0 2.64033 0H9.20487C9.78521 0 10.3418 0.220291 10.7521 0.612413C11.1625 1.00453 11.3931 1.53637 11.3931 2.09091ZM22.334 0H15.7694C15.1891 0 14.6325 0.220291 14.2221 0.612413C13.8118 1.00453 13.5812 1.53637 13.5812 2.09091V8.36364C13.5812 8.91818 13.8118 9.45001 14.2221 9.84213C14.6325 10.2343 15.1891 10.4545 15.7694 10.4545H22.334C22.9143 10.4545 23.4709 10.2343 23.8812 9.84213C24.2916 9.45001 24.5221 8.91818 24.5221 8.36364V2.09091C24.5221 1.53637 24.2916 1.00453 23.8812 0.612413C23.4709 0.220291 22.9143 0 22.334 0ZM9.20487 12.5455H2.64033C2.05999 12.5455 1.50342 12.7657 1.09305 13.1579C0.682688 13.55 0.452148 14.0818 0.452148 14.6364V20.9091C0.452148 21.4636 0.682688 21.9955 1.09305 22.3876C1.50342 22.7797 2.05999 23 2.64033 23H9.20487C9.78521 23 10.3418 22.7797 10.7521 22.3876C11.1625 21.9955 11.3931 21.4636 11.3931 20.9091V14.6364C11.3931 14.0818 11.1625 13.55 10.7521 13.1579C10.3418 12.7657 9.78521 12.5455 9.20487 12.5455ZM22.334 12.5455H15.7694C15.1891 12.5455 14.6325 12.7657 14.2221 13.1579C13.8118 13.55 13.5812 14.0818 13.5812 14.6364V20.9091C13.5812 21.4636 13.8118 21.9955 14.2221 22.3876C14.6325 22.7797 15.1891 23 15.7694 23H22.334C22.9143 23 23.4709 22.7797 23.8812 22.3876C24.2916 21.9955 24.5221 21.4636 24.5221 20.9091V14.6364C24.5221 14.0818 24.2916 13.55 23.8812 13.1579C23.4709 12.7657 22.9143 12.5455 22.334 12.5455Z" fill="#171616"/>
</svg>
