<svg width="13" height="13" viewBox="0 0 13 13" fill="none" xmlns="http://www.w3.org/2000/svg">
<path d="M5.58102 6.5L0.190597 1.11088C0.13017 1.05045 0.0822373 0.978717 0.0495346 0.899766C0.0168319 0.820815 6.36699e-10 0.736195 0 0.650739C-6.36699e-10 0.565283 0.0168319 0.480663 0.0495346 0.401712C0.0822373 0.322761 0.13017 0.251024 0.190597 0.190597C0.251024 0.13017 0.322761 0.0822373 0.401712 0.0495346C0.480663 0.0168319 0.565283 -6.36699e-10 0.650739 0C0.736195 6.36699e-10 0.820815 0.0168319 0.899766 0.0495346C0.978717 0.0822373 1.05045 0.13017 1.11088 0.190597L6.5 5.58102L11.8891 0.190597C12.0112 0.0685596 12.1767 0 12.3493 0C12.5218 0 12.6874 0.0685596 12.8094 0.190597C12.9314 0.312634 13 0.478152 13 0.650739C13 0.823326 12.9314 0.988844 12.8094 1.11088L7.41898 6.5L12.8094 11.8891C12.9314 12.0112 13 12.1767 13 12.3493C13 12.5218 12.9314 12.6874 12.8094 12.8094C12.6874 12.9314 12.5218 13 12.3493 13C12.1767 13 12.0112 12.9314 11.8891 12.8094L6.5 7.41898L1.11088 12.8094C0.988844 12.9314 0.823326 13 0.650739 13C0.478152 13 0.312634 12.9314 0.190597 12.8094C0.0685596 12.6874 0 12.5218 0 12.3493C0 12.1767 0.0685596 12.0112 0.190597 11.8891L5.58102 6.5Z" fill="#757575"/>
</svg>
