<svg xmlns="http://www.w3.org/2000/svg"  viewBox="0 0 64 64"><defs fill="#7F7F7F" /><path  d="m9.01,21l-.84,2.58,5.95,4.33-2.27,7,2.2,1.6,5.95-4.33,2.39,1.73c-.25,1.32-.39,2.69-.39,4.09,0,2,.27,3.93.77,5.77-.9.14-1.82.23-2.77.23-9.94,0-18-8.06-18-18S10.06,8,20,8c6.89,0,12.86,3.87,15.89,9.55-2.14.85-4.11,2.01-5.85,3.45h-6.4l-2.27-7h-2.72l-2.27,7h-7.36Zm52.99,17c0,9.94-8.06,18-18,18s-18-8.06-18-18,8.06-18,18-18,18,8.06,18,18Zm-13,5.5v-3.5h2c1.85,0,3-1.15,3-3s-1.15-3-3-3c0,0-.01,0-.02,0,0-.17.02-.33.02-.5,0-4.63-2.87-7.5-7.5-7.5-4.3,0-7.08,2.48-7.45,6.54l-2.75,2.75c-.23.23-.33.55-.28.87s.25.59.54.73l2.29,1.14.44,2.65c.14.83.68,1.31,1.42,1.31.15,0,.31-.02.48-.06l2.82-.7v3.77l-2.34,1.17c-1.14.57-1.66,1.41-1.66,2.68v1.26c2.06,1.19,4.45,1.89,7,1.89,3.75,0,7.15-1.48,9.66-3.88-.69-1.89-2.38-3.48-4.66-4.62Z" fill="#7F7F7F" /></svg>