<svg width="31" height="25" viewBox="0 0 31 25" fill="none" xmlns="http://www.w3.org/2000/svg">
<path d="M28.0174 8.73535C27.5716 8.73549 27.1319 8.83568 26.7334 9.02795C26.3348 9.22023 25.9883 9.49931 25.7214 9.84303C25.4544 10.1867 25.2744 10.5856 25.1956 11.008C25.1167 11.4304 25.1413 11.8647 25.2673 12.2764L20.8176 16.5592C20.2308 16.371 19.5964 16.371 19.0096 16.5592L15.7109 13.3837C15.8194 12.9759 15.8297 12.5497 15.7409 12.1375C15.652 11.7254 15.4665 11.3383 15.1984 11.0057C14.9304 10.6732 14.5868 10.404 14.1941 10.2189C13.8015 10.0338 13.37 9.93752 12.9327 9.93752C12.4955 9.93752 12.064 10.0338 11.6713 10.2189C11.2786 10.404 10.9351 10.6732 10.667 11.0057C10.3989 11.3383 10.2134 11.7254 10.1246 12.1375C10.0358 12.5497 10.046 12.9759 10.1546 13.3837L4.63757 18.691C4.02506 18.5165 3.36959 18.5434 2.77477 18.7676C2.17995 18.9918 1.67971 19.4004 1.35312 19.9289C1.02652 20.4573 0.892197 21.0755 0.971382 21.6857C1.05057 22.2959 1.33874 22.8632 1.79035 23.2981C2.24197 23.733 2.83126 24.0106 3.46509 24.087C4.09892 24.1634 4.74112 24.0343 5.29021 23.7201C5.83929 23.4059 6.26392 22.9245 6.49699 22.3519C6.73006 21.7794 6.75827 21.1484 6.57716 20.5587L12.0243 15.3156C12.6111 15.5039 13.2456 15.5039 13.8324 15.3156L17.1317 18.4918C17.0232 18.8995 17.0129 19.3257 17.1017 19.7379C17.1906 20.15 17.3761 20.5372 17.6442 20.8697C17.9123 21.2023 18.2558 21.4714 18.6485 21.6565C19.0412 21.8417 19.4726 21.9379 19.9099 21.9379C20.3471 21.9379 20.7786 21.8417 21.1713 21.6565C21.564 21.4714 21.9075 21.2023 22.1756 20.8697C22.4437 20.5372 22.6292 20.15 22.718 19.7379C22.8068 19.3257 22.7966 18.8995 22.688 18.4918L27.2069 14.1441C27.6014 14.2561 28.0163 14.2852 28.4235 14.2293C28.8307 14.1733 29.2206 14.0337 29.5668 13.82C29.913 13.6062 30.2074 13.3232 30.43 12.9903C30.6526 12.6573 30.7982 12.2822 30.8569 11.8903C30.9157 11.4984 30.8861 11.099 30.7704 10.719C30.6546 10.3391 30.4553 9.98757 30.1859 9.68832C29.9166 9.38907 29.5836 9.14909 29.2094 8.98467C28.8352 8.82024 28.4287 8.73521 28.0174 8.73535Z" fill="white"/>
<path d="M20.0062 1V4.86748M20.0062 4.86748V8.73496M20.0062 4.86748H23.8736M20.0062 4.86748H16.1387" stroke="white" stroke-width="1.19748" stroke-linecap="round" stroke-linejoin="round"/>
</svg>
