<svg width="35" height="35" viewBox="0 0 35 35" fill="none" xmlns="http://www.w3.org/2000/svg">
<path d="M7.26687 16.3373L1 33.9835L18.6462 27.7331M4.29835 2.64918H4.31484M33.9835 10.8951H34M22.4393 1H22.4558M33.9835 30.6852H34M33.9835 1L30.2894 2.23688C29.2378 2.58715 28.3406 3.29176 27.751 4.23028C27.1614 5.1688 26.9161 6.28295 27.057 7.38231C27.2219 8.8006 26.1169 10.0705 24.6657 10.0705H24.039C22.6207 10.0705 21.4003 11.06 21.1364 12.4453L20.7901 14.1934M33.9835 19.1409L32.6312 18.5967C31.2129 18.036 29.6297 18.9265 29.3658 20.4273C29.1844 21.5817 28.1784 22.4393 27.0075 22.4393H25.7376M15.8426 1L16.3868 2.35232C16.9475 3.77061 16.057 5.35382 14.5562 5.61769C13.4018 5.78261 12.5442 6.8051 12.5442 7.97601V9.24588" stroke="#2F2929" stroke-width="2" stroke-linecap="round" stroke-linejoin="round"/>
<path d="M15.8427 19.1401C19.0256 22.323 20.5099 26.0172 19.1411 27.386C17.7722 28.7548 14.0781 27.2706 10.8952 24.0877C7.71227 20.9048 6.22801 17.2106 7.59683 15.8418C8.96564 14.473 12.6598 15.9572 15.8427 19.1401Z" stroke="#2F2929" stroke-width="2" stroke-linecap="round" stroke-linejoin="round"/>
</svg>
