<svg width="15" height="16" viewBox="0 0 15 16" fill="none" xmlns="http://www.w3.org/2000/svg">
<path d="M14.7511 9.31134C14.6421 9.19489 14.5055 9.11228 14.3558 9.07238C14.2061 9.03248 14.0491 9.0368 13.9016 9.08486C12.871 9.41666 11.7753 9.44412 10.7312 9.16431C9.68706 8.8845 8.73369 8.30791 7.97259 7.49594C7.2115 6.68398 6.67118 5.66706 6.4092 4.5535C6.14722 3.43994 6.17339 2.27145 6.48491 1.1725C6.53036 1.0151 6.53471 0.847467 6.4975 0.687628C6.46029 0.527788 6.38292 0.38179 6.27372 0.265335C6.16452 0.14888 6.02762 0.066374 5.87773 0.026691C5.72785 -0.0129921 5.57066 -0.00835116 5.42306 0.0401146C3.87304 0.548175 2.5128 1.56473 1.53598 2.94506C0.68176 4.15588 0.160837 5.5966 0.0316638 7.10556C-0.0975093 8.61452 0.170179 10.132 0.804691 11.4878C1.4392 12.8435 2.41543 13.9839 3.62384 14.7809C4.83225 15.5779 6.22502 16.0001 7.64587 16C9.30473 16.0052 10.9194 15.4299 12.2423 14.3625C13.5359 13.3198 14.4882 11.8684 14.9634 10.215C15.0081 10.058 15.0119 9.89097 14.9745 9.73182C14.9371 9.57266 14.8599 9.42733 14.7511 9.31134ZM11.2201 12.9153C10.075 13.8346 8.6572 14.2819 7.22749 14.1749C5.79779 14.0679 4.45242 13.4139 3.43898 12.3331C2.42554 11.2524 1.81223 9.81763 1.71192 8.29295C1.6116 6.76828 2.03104 5.25626 2.89303 4.03517C3.3466 3.39535 3.90872 2.85196 4.55022 2.43322C4.53748 2.62648 4.53111 2.8205 4.53111 3.01527C4.53336 5.17689 5.33956 7.24929 6.77285 8.77779C8.20614 10.3063 10.1495 11.1661 12.1764 11.1685C12.3591 11.1685 12.541 11.1617 12.7222 11.1481C12.3298 11.8323 11.8202 12.4318 11.2201 12.9153Z" fill="white"/>
</svg>
