<svg width="26" height="26" viewBox="0 0 26 26" fill="none" xmlns="http://www.w3.org/2000/svg">
<path d="M3.70617 8.3305C4.57146 6.60747 5.89888 5.15903 7.54006 4.14707C9.18124 3.1351 11.0715 2.59949 12.9996 2.6001C15.8024 2.6001 18.157 3.63074 19.9572 5.3093L16.9755 8.29202C15.897 7.26138 14.5263 6.73618 12.9996 6.73618C10.2904 6.73618 7.99721 8.56658 7.18081 11.0241C6.97281 11.6481 6.85425 12.3137 6.85425 13.0001C6.85425 13.6865 6.97281 14.3521 7.18081 14.9761C7.99825 17.4347 10.2904 19.264 12.9996 19.264C14.3984 19.264 15.5892 18.8948 16.521 18.2708C17.0613 17.9151 17.5237 17.4536 17.8805 16.9141C18.2373 16.3747 18.481 15.7684 18.5969 15.1321H12.9996V11.1094H22.7943C22.917 11.7895 22.9836 12.4988 22.9836 13.2362C22.9836 16.404 21.85 19.0706 19.8823 20.8802C18.1622 22.4693 15.8076 23.4001 12.9996 23.4001C11.6337 23.4006 10.2811 23.132 9.01906 22.6096C7.75702 22.0871 6.61032 21.3211 5.64448 20.3552C4.67864 19.3894 3.9126 18.2427 3.39015 16.9807C2.86769 15.7186 2.59906 14.366 2.59961 13.0001C2.59961 11.3215 3.00105 9.7345 3.70617 8.3305Z" fill="black"/>
</svg>
