<svg width="23" height="23" viewBox="0 0 23 23" fill="none" xmlns="http://www.w3.org/2000/svg">
<path d="M10.7288 1.56361C10.764 1.35702 10.7147 1.1453 10.5913 0.973119C10.4679 0.800937 10.28 0.681746 10.0674 0.640685C9.8547 0.599624 9.63383 0.639903 9.45133 0.753026C9.26883 0.866149 9.13897 1.04327 9.08915 1.24704L7.88453 7.05834H2.38011C2.15824 7.05834 1.94547 7.14343 1.78859 7.29488C1.6317 7.44633 1.54357 7.65174 1.54357 7.86592C1.54357 8.0801 1.6317 8.28551 1.78859 8.43696C1.94547 8.58841 2.15824 8.67349 2.38011 8.67349H7.54992L6.37876 14.3265H1.54357C1.32171 14.3265 1.10893 14.4116 0.952048 14.563C0.795166 14.7145 0.707031 14.9199 0.707031 15.1341C0.707031 15.3483 0.795166 15.5537 0.952048 15.7051C1.10893 15.8566 1.32171 15.9417 1.54357 15.9417H6.04415L4.90645 21.4364C4.87126 21.643 4.92056 21.8547 5.04395 22.0269C5.16734 22.1991 5.35518 22.3183 5.56785 22.3593C5.78052 22.4004 6.00139 22.3601 6.18389 22.247C6.36639 22.1339 6.49624 21.9567 6.54607 21.753L7.75068 15.9417H13.573L12.4353 21.4364C12.4001 21.643 12.4494 21.8547 12.5728 22.0269C12.6962 22.1991 12.884 22.3183 13.0967 22.3593C13.3094 22.4004 13.5302 22.3601 13.7127 22.247C13.8952 22.1339 14.0251 21.9567 14.0749 21.753L15.2795 15.9417H20.784C21.0058 15.9417 21.2186 15.8566 21.3755 15.7051C21.5324 15.5537 21.6205 15.3483 21.6205 15.1341C21.6205 14.9199 21.5324 14.7145 21.3755 14.563C21.2186 14.4116 21.0058 14.3265 20.784 14.3265H15.6141L16.7853 8.67349H21.6205C21.8424 8.67349 22.0551 8.58841 22.212 8.43696C22.3689 8.28551 22.457 8.0801 22.457 7.86592C22.457 7.65174 22.3689 7.44633 22.212 7.29488C22.0551 7.14343 21.8424 7.05834 21.6205 7.05834H17.1199L18.2576 1.56361C18.2928 1.35702 18.2435 1.1453 18.1201 0.973119C17.9967 0.800937 17.8089 0.681746 17.5962 0.640685C17.3835 0.599624 17.1627 0.639903 16.9802 0.753026C16.7977 0.866149 16.6678 1.04327 16.618 1.24704L15.4134 7.05834H9.59107L10.7288 1.56361ZM13.9076 14.3265H8.0853L9.25645 8.67349H15.0788L13.9076 14.3265Z" fill="#111111"/>
</svg>
