<svg width="24" height="21" viewBox="0 0 24 21" fill="none" xmlns="http://www.w3.org/2000/svg">
<path id="Vector" d="M24 6.56248C24 9.90934 22.0333 13.3437 18.1556 16.7781C16.3947 18.3363 14.4774 19.7142 12.4333 20.8905C12.3005 20.9624 12.1515 21 12 21C11.8485 21 11.6995 20.9624 11.5667 20.8905C11.0889 20.628 0 14.4265 0 6.56248C0 5.18513 0.440249 3.84269 1.25839 2.72533C2.07652 1.60796 3.23107 0.772321 4.55848 0.336765C5.8859 -0.0987912 7.31888 -0.112177 8.65445 0.298504C9.99002 0.709185 11.1605 1.52311 12 2.62499C12.8395 1.52311 14.01 0.709185 15.3455 0.298504C16.6811 -0.112177 18.1141 -0.0987912 19.4415 0.336765C20.7689 0.772321 21.9235 1.60796 22.7416 2.72533C23.5598 3.84269 24 5.18513 24 6.56248Z" fill="white"/>
</svg>
