<svg width="24" height="21" viewBox="0 0 24 21" fill="none" xmlns="http://www.w3.org/2000/svg">
<path d="M23.5 6.56248C23.5 9.70312 21.6533 13.0123 17.8242 16.4036C16.0907 17.9377 14.2032 19.2945 12.1908 20.4532C12.1325 20.4838 12.067 20.5 12 20.5C11.9317 20.5 11.8648 20.4831 11.8056 20.4513C11.5684 20.3209 8.7229 18.7284 5.93991 16.2066C3.12733 13.6579 0.5 10.2692 0.5 6.56248C0.5 5.29197 0.906052 4.05288 1.66181 3.02071C2.41765 1.98843 3.48527 1.21514 4.71437 0.811844C5.94354 0.408524 7.27072 0.396118 8.50749 0.77642C9.7442 1.1567 10.8266 1.90995 11.6023 2.92801L12 3.45001L12.3977 2.92801C13.1734 1.90995 14.2558 1.1567 15.4925 0.77642C16.7293 0.396118 18.0565 0.408524 19.2856 0.811844C20.5147 1.21514 21.5824 1.98843 22.3382 3.02071C23.0939 4.05288 23.5 5.29197 23.5 6.56248Z" fill="white" stroke="black"/>
</svg>
