<svg width="19" height="15" viewBox="0 0 19 15" fill="none" xmlns="http://www.w3.org/2000/svg">
<path id="Vector" d="M7.88 3.71176C8.38834 3.49802 8.94057 3.38573 9.5 3.38235C10.5741 3.38235 11.6043 3.77279 12.3638 4.46778C13.1233 5.16277 13.55 6.10537 13.55 7.08824C13.5489 7.52474 13.4605 7.95737 13.289 8.36471L15.8 10.4976C16.9211 9.52246 17.8363 8.36672 18.5 7.08824C18.5 7.08824 15.8 1.32353 9.5 1.32353C8.25907 1.31835 7.0314 1.55706 5.9 2.02353L7.88 3.71176ZM2.3 0.5L1.4 1.32353L3.695 3.3C2.35004 4.34251 1.26122 5.6335 0.5 7.08824C0.5 7.08824 3.2 12.8529 9.5 12.8529C10.9575 12.8595 12.3934 12.531 13.676 11.8976L16.7 14.5L17.6 13.6765L9.95 7.08824L2.3 0.5ZM9.5 10.7941C8.42587 10.7941 7.39574 10.4037 6.63622 9.70869C5.87669 9.0137 5.45 8.0711 5.45 7.08824C5.45497 6.45165 5.64108 5.82722 5.99 5.27647L7.367 6.46235C7.29243 6.66409 7.25295 6.87529 7.25 7.08824C7.24909 7.42342 7.33798 7.75369 7.5089 8.05015C7.67982 8.3466 7.92755 8.6002 8.23041 8.78875C8.53327 8.97729 8.88202 9.09503 9.24613 9.13165C9.61024 9.16827 9.97861 9.12267 10.319 8.99882L11.705 10.1929C11.0496 10.5855 10.2833 10.7944 9.5 10.7941Z" fill="#504D4D"/>
</svg>
