<svg width="3" height="21" viewBox="0 0 3 21" fill="none" xmlns="http://www.w3.org/2000/svg">
<path fill-rule="evenodd" clip-rule="evenodd" d="M1.5 0C1.10218 0 0.720645 0.158036 0.43934 0.43934C0.158036 0.720645 0 1.10218 0 1.5V15C0 15.3978 0.158036 15.7794 0.43934 16.0607C0.720645 16.342 1.10218 16.5 1.5 16.5C1.89782 16.5 2.27936 16.342 2.56066 16.0607C2.84196 15.7794 3 15.3978 3 15V1.5C3 1.10218 2.84196 0.720645 2.56066 0.43934C2.27936 0.158036 1.89782 0 1.5 0ZM1.5 21C1.10218 21 0.720645 20.842 0.43934 20.5607C0.158036 20.2794 0 19.8978 0 19.5C0 19.1022 0.158036 18.7206 0.43934 18.4393C0.720645 18.158 1.10218 18 1.5 18C1.89782 18 2.27936 18.158 2.56066 18.4393C2.84196 18.7206 3 19.1022 3 19.5C3 19.8978 2.84196 20.2794 2.56066 20.5607C2.27936 20.842 1.89782 21 1.5 21Z" fill="#FF6464"/>
</svg>
