<svg width="15" height="15" viewBox="0 0 15 15" fill="none" xmlns="http://www.w3.org/2000/svg">
<path d="M6.75 1.75V0.75C6.75 0.551088 6.82902 0.360322 6.96967 0.21967C7.11032 0.0790177 7.30109 0 7.5 0C7.69891 0 7.88968 0.0790177 8.03033 0.21967C8.17098 0.360322 8.25 0.551088 8.25 0.75V1.75C8.25 1.94891 8.17098 2.13968 8.03033 2.28033C7.88968 2.42098 7.69891 2.5 7.5 2.5C7.30109 2.5 7.11032 2.42098 6.96967 2.28033C6.82902 2.13968 6.75 1.94891 6.75 1.75ZM11.75 7.5C11.75 8.34057 11.5007 9.16226 11.0337 9.86117C10.5667 10.5601 9.90299 11.1048 9.1264 11.4265C8.34982 11.7482 7.49529 11.8323 6.67087 11.6683C5.84645 11.5044 5.08917 11.0996 4.4948 10.5052C3.90042 9.91083 3.49565 9.15355 3.33166 8.32913C3.16768 7.50471 3.25184 6.65018 3.57351 5.8736C3.89518 5.09701 4.43992 4.43325 5.13883 3.96625C5.83774 3.49926 6.65943 3.25 7.5 3.25C8.62681 3.25116 9.70715 3.6993 10.5039 4.49608C11.3007 5.29285 11.7488 6.37319 11.75 7.5ZM10.25 7.5C10.25 6.9561 10.0887 6.42442 9.78654 5.97218C9.48437 5.51995 9.05488 5.16747 8.55238 4.95933C8.04988 4.75119 7.49695 4.69673 6.9635 4.80284C6.43005 4.90895 5.94005 5.17086 5.55546 5.55546C5.17086 5.94005 4.90895 6.43005 4.80284 6.9635C4.69673 7.49695 4.75119 8.04988 4.95933 8.55238C5.16747 9.05488 5.51995 9.48437 5.97218 9.78654C6.42442 10.0887 6.9561 10.25 7.5 10.25C8.22909 10.2492 8.92808 9.95918 9.44363 9.44363C9.95918 8.92808 10.2492 8.22909 10.25 7.5ZM2.71937 3.78062C2.78914 3.85039 2.87196 3.90573 2.96311 3.94349C3.05427 3.98124 3.15196 4.00068 3.25062 4.00068C3.34929 4.00068 3.44698 3.98124 3.53814 3.94349C3.62929 3.90573 3.71211 3.85039 3.78188 3.78062C3.85164 3.71086 3.90698 3.62804 3.94474 3.53689C3.98249 3.44573 4.00193 3.34804 4.00193 3.24938C4.00193 3.15071 3.98249 3.05302 3.94474 2.96186C3.90698 2.87071 3.85164 2.78789 3.78188 2.71813L3.03187 1.96813C2.89098 1.82723 2.69988 1.74807 2.50062 1.74807C2.30137 1.74807 2.11027 1.82723 1.96937 1.96813C1.82848 2.10902 1.74932 2.30012 1.74932 2.49938C1.74932 2.69863 1.82848 2.88973 1.96937 3.03063L2.71937 3.78062ZM2.71937 11.2181L1.96937 11.9681C1.89961 12.0379 1.84427 12.1207 1.80651 12.2119C1.76876 12.303 1.74932 12.4007 1.74932 12.4994C1.74932 12.598 1.76876 12.6957 1.80651 12.7869C1.84427 12.878 1.89961 12.9609 1.96937 13.0306C2.11027 13.1715 2.30137 13.2507 2.50062 13.2507C2.59929 13.2507 2.69698 13.2312 2.78814 13.1935C2.87929 13.1557 2.96211 13.1004 3.03187 13.0306L3.78188 12.2806C3.92277 12.1397 4.00193 11.9486 4.00193 11.7494C4.00193 11.5501 3.92277 11.359 3.78188 11.2181C3.64098 11.0772 3.44988 10.9981 3.25062 10.9981C3.05137 10.9981 2.86027 11.0772 2.71937 11.2181ZM11.75 4C11.8485 4.00008 11.9461 3.98074 12.0371 3.9431C12.1282 3.90546 12.2109 3.85025 12.2806 3.78062L13.0306 3.03063C13.1004 2.96086 13.1557 2.87804 13.1935 2.78689C13.2312 2.69573 13.2507 2.59804 13.2507 2.49938C13.2507 2.40071 13.2312 2.30302 13.1935 2.21186C13.1557 2.12071 13.1004 2.03789 13.0306 1.96813C12.9609 1.89836 12.878 1.84302 12.7869 1.80526C12.6957 1.76751 12.598 1.74807 12.4994 1.74807C12.4007 1.74807 12.303 1.76751 12.2119 1.80526C12.1207 1.84302 12.0379 1.89836 11.9681 1.96813L11.2181 2.71813C11.1126 2.82302 11.0407 2.95694 11.0115 3.10283C10.9823 3.24873 10.9971 3.40001 11.0542 3.53744C11.1112 3.67486 11.2078 3.79223 11.3317 3.87459C11.4556 3.95696 11.6012 4.00062 11.75 4ZM12.2806 11.2194C12.1397 11.0785 11.9486 10.9993 11.7494 10.9993C11.5501 10.9993 11.359 11.0785 11.2181 11.2194C11.0772 11.3603 10.9981 11.5514 10.9981 11.7506C10.9981 11.9499 11.0772 12.141 11.2181 12.2819L11.9681 13.0319C12.109 13.1728 12.3001 13.2519 12.4994 13.2519C12.6986 13.2519 12.8897 13.1728 13.0306 13.0319C13.1715 12.891 13.2507 12.6999 13.2507 12.5006C13.2507 12.3014 13.1715 12.1103 13.0306 11.9694L12.2806 11.2194ZM2.5 7.5C2.5 7.30109 2.42098 7.11032 2.28033 6.96967C2.13968 6.82902 1.94891 6.75 1.75 6.75H0.75C0.551088 6.75 0.360322 6.82902 0.21967 6.96967C0.0790177 7.11032 0 7.30109 0 7.5C0 7.69891 0.0790177 7.88968 0.21967 8.03033C0.360322 8.17098 0.551088 8.25 0.75 8.25H1.75C1.94891 8.25 2.13968 8.17098 2.28033 8.03033C2.42098 7.88968 2.5 7.69891 2.5 7.5ZM7.5 12.5C7.30109 12.5 7.11032 12.579 6.96967 12.7197C6.82902 12.8603 6.75 13.0511 6.75 13.25V14.25C6.75 14.4489 6.82902 14.6397 6.96967 14.7803C7.11032 14.921 7.30109 15 7.5 15C7.69891 15 7.88968 14.921 8.03033 14.7803C8.17098 14.6397 8.25 14.4489 8.25 14.25V13.25C8.25 13.0511 8.17098 12.8603 8.03033 12.7197C7.88968 12.579 7.69891 12.5 7.5 12.5ZM14.25 6.75H13.25C13.0511 6.75 12.8603 6.82902 12.7197 6.96967C12.579 7.11032 12.5 7.30109 12.5 7.5C12.5 7.69891 12.579 7.88968 12.7197 8.03033C12.8603 8.17098 13.0511 8.25 13.25 8.25H14.25C14.4489 8.25 14.6397 8.17098 14.7803 8.03033C14.921 7.88968 15 7.69891 15 7.5C15 7.30109 14.921 7.11032 14.7803 6.96967C14.6397 6.82902 14.4489 6.75 14.25 6.75Z" fill="#111111"/>
</svg>
