<svg width="150" height="42" viewBox="0 0 150 42" fill="none" xmlns="http://www.w3.org/2000/svg">
<path d="M2.196 34V8.44H9.216V27.88H20.808V34H2.196ZM41.4706 27.88V34H23.2546V8.44H41.1466V14.56H30.2746V18.16H39.5626V23.848H30.2746V27.88H41.4706ZM55.4003 34.18C53.7443 34.18 52.1603 33.892 50.6483 33.316C49.1603 32.716 47.8403 31.852 46.6883 30.724C45.5363 29.572 44.6243 28.192 43.9523 26.584C43.3043 24.952 42.9803 23.092 42.9803 21.004C42.9803 19.204 43.3163 17.536 43.9883 16C44.6603 14.464 45.5843 13.12 46.7603 11.968C47.9603 10.792 49.3523 9.88 50.9363 9.232C52.5203 8.584 54.2363 8.26 56.0843 8.26C58.3883 8.26 60.4763 8.764 62.3483 9.772C64.2203 10.756 65.6123 12.112 66.5243 13.84L61.3043 17.836C60.8003 16.828 60.0443 16.024 59.0363 15.424C58.0283 14.8 56.9603 14.488 55.8323 14.488C54.9923 14.488 54.2243 14.656 53.5283 14.992C52.8323 15.328 52.2203 15.796 51.6923 16.396C51.1883 16.996 50.7923 17.716 50.5043 18.556C50.2403 19.372 50.1083 20.272 50.1083 21.256C50.1083 22.264 50.2523 23.176 50.5403 23.992C50.8283 24.808 51.2243 25.516 51.7283 26.116C52.2563 26.692 52.8803 27.148 53.6003 27.484C54.3203 27.796 55.1243 27.952 56.0123 27.952C57.1403 27.952 58.2203 27.676 59.2523 27.124C60.2843 26.548 61.2203 25.744 62.0603 24.712V31.552C60.1403 33.304 57.9203 34.18 55.4003 34.18ZM61.7003 25.432H56.9843V20.392H67.4963V34H61.7003V25.432ZM101.901 21.004C101.901 19.444 102.189 17.92 102.765 16.432C103.365 14.92 104.229 13.552 105.357 12.328C106.485 11.104 107.853 10.132 109.461 9.412C111.093 8.668 112.929 8.296 114.969 8.296C117.417 8.296 119.553 8.812 121.377 9.844C123.201 10.852 124.557 12.196 125.445 13.876L120.081 17.692C119.769 16.852 119.313 16.204 118.713 15.748C118.137 15.292 117.501 14.98 116.805 14.812C116.133 14.62 115.473 14.524 114.825 14.524C113.817 14.524 112.941 14.728 112.197 15.136C111.477 15.52 110.877 16.036 110.397 16.684C109.941 17.332 109.593 18.052 109.353 18.844C109.137 19.636 109.029 20.428 109.029 21.22C109.029 22.108 109.161 22.96 109.425 23.776C109.689 24.592 110.073 25.324 110.577 25.972C111.081 26.596 111.693 27.088 112.413 27.448C113.157 27.808 113.985 27.988 114.897 27.988C115.545 27.988 116.205 27.892 116.877 27.7C117.549 27.484 118.161 27.148 118.713 26.692C119.265 26.236 119.685 25.624 119.973 24.856L125.697 28.276C125.193 29.524 124.353 30.592 123.177 31.48C122.001 32.368 120.669 33.052 119.181 33.532C117.693 33.988 116.217 34.216 114.753 34.216C112.857 34.216 111.117 33.844 109.533 33.1C107.973 32.332 106.617 31.324 105.465 30.076C104.337 28.804 103.461 27.388 102.837 25.828C102.213 24.244 101.901 22.636 101.901 21.004ZM132.747 8.44L137.319 18.88L141.999 8.44H149.631L140.811 25.54V34H133.827V25.468L125.151 8.44H132.747Z" fill="#1C1B18"/>
<path d="M91.3794 34.248C94.6962 33.3348 97.6553 29.5052 98.6703 24.8121C100.193 17.7729 97.5008 10.7319 92.2942 8.13603C89.1209 6.55402 85.0395 7.59796 82.4722 10.648C79.0009 14.7725 77.9751 21.7152 80.035 27.1416C81.2076 30.2311 83.8092 33.113 86.3513 34.139C87.5019 34.6035 89.9002 34.6554 91.3794 34.248Z" fill="#272623"/>
<path d="M79.1983 12.8134C79.9013 11.3139 82.0084 8.45383 82.4247 8.43413C82.5271 8.42921 83.025 8.15279 83.5308 7.81999C84.4505 7.2147 84.4505 7.21471 82.2825 7.21347C81.062 7.21273 79.4543 7.39167 78.6036 7.62306C76.5603 8.17837 73.9535 10.3233 72.6689 12.5064C70.9677 15.3972 70.6532 16.7511 70.6679 21.1198C70.6826 25.5274 71.0882 26.9843 73.1683 30.1043C75.3082 33.3139 77.5805 34.535 81.4118 34.535C83.7586 34.535 83.7586 34.535 82.3858 33.2427C77.0422 28.2121 75.7779 20.1093 79.1983 12.8134Z" fill="#272623"/>
</svg>
