<svg width="29" height="28" viewBox="0 0 29 28" fill="none" xmlns="http://www.w3.org/2000/svg">
<path id="Vector" d="M18.2861 27.8217L9.66667 24.8685L2.175 27.7035C1.63796 27.9135 1.1412 27.8542 0.684722 27.5256C0.228241 27.198 0 26.7585 0 26.2072V4.15662C0 3.81536 0.100963 3.51348 0.302889 3.25097C0.503741 2.98847 0.778704 2.79158 1.12778 2.66033L8.61944 0.179635C8.96852 0.0746325 9.31759 0.0153059 9.66667 0.00165552C10.0157 -0.0109448 10.3648 0.0483817 10.7139 0.179635L19.3333 3.13284L26.825 0.297764C27.362 0.0877579 27.8588 0.14656 28.3153 0.474169C28.7718 0.802828 29 1.24279 29 1.79406V23.8447C29 24.1859 28.899 24.4878 28.6971 24.7503C28.4963 25.0128 28.2213 25.2097 27.8722 25.341L20.3806 27.8217C20.0315 27.9267 19.6824 27.9855 19.3333 27.9981C18.9843 28.0117 18.6352 27.9529 18.2861 27.8217ZM17.7222 24.3172V5.88917L11.2778 3.68411V22.1121L17.7222 24.3172Z" fill="#5F5F5F"/>
</svg>
