<svg width="19" height="20" viewBox="0 0 19 20" fill="none" xmlns="http://www.w3.org/2000/svg">
<path d="M8.7085 9.19314C8.7085 8.98318 8.7919 8.78181 8.94037 8.63335C9.08884 8.48488 9.2902 8.40147 9.50016 8.40147C9.71013 8.40147 9.91149 8.48488 10.06 8.63335C10.2084 8.78181 10.2918 8.98318 10.2918 9.19314V13.9431C10.2918 14.1531 10.2084 14.3545 10.06 14.5029C9.91149 14.6514 9.71013 14.7348 9.50016 14.7348C9.2902 14.7348 9.08884 14.6514 8.94037 14.5029C8.7919 14.3545 8.7085 14.1531 8.7085 13.9431V9.19314ZM9.50016 5.29102C9.2902 5.29102 9.08884 5.37442 8.94037 5.52289C8.7919 5.67136 8.7085 5.87272 8.7085 6.08268C8.7085 6.29265 8.7919 6.49401 8.94037 6.64247C9.08884 6.79094 9.2902 6.87435 9.50016 6.87435C9.71013 6.87435 9.91149 6.79094 10.06 6.64247C10.2084 6.49401 10.2918 6.29265 10.2918 6.08268C10.2918 5.87272 10.2084 5.67136 10.06 5.52289C9.91149 5.37442 9.71013 5.29102 9.50016 5.29102Z" fill="#3A3939"/>
<path fill-rule="evenodd" clip-rule="evenodd" d="M9.50016 2.08398C5.12779 2.08398 1.5835 5.62828 1.5835 10.0007C1.5835 14.373 5.12779 17.9173 9.50016 17.9173C13.8725 17.9173 17.4168 14.373 17.4168 10.0007C17.4168 5.62828 13.8725 2.08398 9.50016 2.08398ZM3.16683 10.0007C3.16683 11.6804 3.83409 13.2913 5.02182 14.479C6.20955 15.6667 7.82046 16.334 9.50016 16.334C11.1799 16.334 12.7908 15.6667 13.9785 14.479C15.1662 13.2913 15.8335 11.6804 15.8335 10.0007C15.8335 8.32095 15.1662 6.71004 13.9785 5.52231C12.7908 4.33458 11.1799 3.66732 9.50016 3.66732C7.82046 3.66732 6.20955 4.33458 5.02182 5.52231C3.83409 6.71004 3.16683 8.32095 3.16683 10.0007Z" fill="#3A3939"/>
</svg>
