<svg width="15" height="15" viewBox="0 0 15 15" fill="none" xmlns="http://www.w3.org/2000/svg">
<path d="M0 12.312V14.5188C0 14.6464 0.0506856 14.7688 0.140906 14.8591C0.231127 14.9493 0.353493 15 0.481084 15H2.69215C2.81949 15 2.94163 14.9494 3.03179 14.8595L12.1224 5.76659L9.23585 2.87934L0.141439 11.9722C0.0511533 12.0623 0.000282284 12.1845 0 12.312ZM10.427 1.68691L13.3135 4.57415L14.7183 3.16903C14.8987 2.98855 15 2.7438 15 2.4886C15 2.2334 14.8987 1.98865 14.7183 1.80817L13.1933 0.281782C13.0128 0.101357 12.7681 0 12.513 0C12.2579 0 12.0132 0.101357 11.8327 0.281782L10.427 1.68691Z" fill="#2F2F2F"/>
</svg>
