<svg width="18" height="17" viewBox="0 0 18 17" fill="none" xmlns="http://www.w3.org/2000/svg">
<path d="M17.6892 11.6499C17.5941 11.5911 17.4855 11.5568 17.3733 11.5502C17.2611 11.5436 17.1491 11.565 17.0476 11.6123C16.7936 11.7301 16.5133 11.783 16.2328 11.7661C15.9524 11.7492 15.6808 11.663 15.4434 11.5156C15.206 11.3681 15.0105 11.1642 14.875 10.9228C14.7396 10.6813 14.6685 10.4102 14.6685 10.1346C14.6685 9.85897 14.7396 9.58785 14.875 9.3464C15.0105 9.10495 15.206 8.90102 15.4434 8.75357C15.6808 8.60612 15.9524 8.51994 16.2328 8.50303C16.5133 8.48613 16.7936 8.53905 17.0476 8.65688C17.1492 8.70418 17.2614 8.7255 17.3737 8.71883C17.4859 8.71216 17.5947 8.67774 17.6897 8.61876C17.7848 8.55977 17.8631 8.47816 17.9174 8.3815C17.9716 8.28484 18 8.1763 18 8.06596V4.57686C18 4.23003 17.8595 3.89741 17.6095 3.65217C17.3595 3.40693 17.0204 3.26916 16.6668 3.26916H13.6486C13.661 3.16061 13.6672 3.05146 13.667 2.94223C13.6663 2.54038 13.5821 2.14288 13.4193 1.7741C13.2565 1.40533 13.0187 1.07304 12.7204 0.797605C12.3073 0.417074 11.7928 0.159095 11.2364 0.0535404C10.68 -0.0520139 10.1045 -0.000824943 9.57652 0.20118C9.04856 0.403184 8.58975 0.747741 8.25319 1.19495C7.91664 1.64216 7.71613 2.17373 7.67487 2.7281C7.66206 2.90842 7.66597 3.08952 7.68653 3.26916H4.66757C4.31397 3.26916 3.97486 3.40693 3.72483 3.65217C3.47479 3.89741 3.33433 4.23003 3.33433 4.57686V7.21024C3.22366 7.19807 3.11238 7.19207 3.00102 7.19225C2.59132 7.1929 2.18607 7.27559 1.8101 7.43524C1.43413 7.59489 1.09534 7.82814 0.814498 8.12072C0.531641 8.41378 0.313839 8.76121 0.174858 9.14105C0.0358768 9.52088 -0.0212619 9.92486 0.00705314 10.3275C0.0548232 11.0364 0.361926 11.7045 0.871886 12.2091C1.38185 12.7136 2.06038 13.0206 2.7827 13.0736C2.96654 13.0866 3.15121 13.0828 3.33433 13.0622V15.6923C3.33433 16.0391 3.47479 16.3717 3.72483 16.617C3.97486 16.8622 4.31397 17 4.66757 17H16.6668C17.0204 17 17.3595 16.8622 17.6095 16.617C17.8595 16.3717 18 16.0391 18 15.6923V12.2032C18.0001 12.0927 17.9716 11.984 17.9172 11.8873C17.8629 11.7905 17.7844 11.7088 17.6892 11.6499ZM16.6668 15.6923H4.66757V12.2032C4.66761 12.0929 4.63918 11.9843 4.58493 11.8877C4.53068 11.791 4.45238 11.7094 4.35731 11.6504C4.26224 11.5914 4.1535 11.557 4.04122 11.5503C3.92894 11.5437 3.81676 11.565 3.71514 11.6123C3.46112 11.7301 3.18086 11.783 2.9004 11.7661C2.61995 11.7492 2.3484 11.663 2.11101 11.5156C1.87362 11.3681 1.67809 11.1642 1.54261 10.9228C1.40712 10.6813 1.33608 10.4102 1.33608 10.1346C1.33608 9.85897 1.40712 9.58785 1.54261 9.3464C1.67809 9.10495 1.87362 8.90102 2.11101 8.75357C2.3484 8.60612 2.61995 8.51994 2.9004 8.50303C3.18086 8.48613 3.46112 8.53905 3.71514 8.65688C3.81676 8.70418 3.92894 8.7255 4.04122 8.71883C4.1535 8.71216 4.26224 8.67774 4.35731 8.61876C4.45238 8.55977 4.53068 8.47816 4.58493 8.3815C4.63918 8.28484 4.66761 8.1763 4.66757 8.06596V4.57686H8.55814C8.67063 4.57689 8.7813 4.54901 8.87984 4.4958C8.97838 4.44259 9.0616 4.36579 9.12173 4.27254C9.18187 4.17929 9.21697 4.07264 9.22376 3.96251C9.23056 3.85237 9.20883 3.74235 9.1606 3.64267C9.04047 3.39352 8.98651 3.11863 9.00375 2.84355C9.02098 2.56846 9.10885 2.30212 9.25918 2.06928C9.40951 1.83643 9.61742 1.64465 9.86359 1.51176C10.1098 1.37887 10.3862 1.30919 10.6672 1.30919C10.9482 1.30919 11.2246 1.37887 11.4707 1.51176C11.7169 1.64465 11.9248 1.83643 12.0751 2.06928C12.2255 2.30212 12.3133 2.56846 12.3306 2.84355C12.3478 3.11863 12.2939 3.39352 12.1737 3.64267C12.1255 3.74235 12.1038 3.85237 12.1106 3.96251C12.1174 4.07264 12.1525 4.17929 12.2126 4.27254C12.2727 4.36579 12.3559 4.44259 12.4545 4.4958C12.553 4.54901 12.6637 4.57689 12.7762 4.57686H16.6668V7.21105C16.4836 7.19048 16.299 7.18665 16.1151 7.19961C15.3393 7.2535 14.6151 7.60085 14.0953 8.1684C13.5756 8.73595 13.3009 9.47933 13.3292 10.2417C13.3575 11.0041 13.6866 11.7259 14.2471 12.2548C14.8076 12.7838 15.5557 13.0785 16.3334 13.0769C16.4448 13.0771 16.5561 13.0711 16.6668 13.0589V15.6923Z" fill="#212121"/>
<path d="M16.6668 15.6923H4.66757V12.2032C4.66761 12.0929 4.63918 11.9843 4.58493 11.8877C4.53068 11.791 4.45238 11.7094 4.35731 11.6504C4.26224 11.5914 4.1535 11.557 4.04122 11.5503C3.92894 11.5437 3.81676 11.565 3.71514 11.6123C3.46112 11.7301 3.18086 11.783 2.9004 11.7661C2.61995 11.7492 2.3484 11.663 2.11101 11.5156C1.87362 11.3681 1.67809 11.1642 1.54261 10.9228C1.40712 10.6813 1.33608 10.4102 1.33608 10.1346C1.33608 9.85897 1.40712 9.58785 1.54261 9.3464C1.67809 9.10495 1.87362 8.90102 2.11101 8.75357C2.3484 8.60612 2.61995 8.51994 2.9004 8.50303C3.18086 8.48613 3.46112 8.53905 3.71514 8.65688C3.81676 8.70418 3.92894 8.7255 4.04122 8.71883C4.1535 8.71216 4.26224 8.67774 4.35731 8.61876C4.45238 8.55977 4.53068 8.47816 4.58493 8.3815C4.63918 8.28484 4.66761 8.1763 4.66757 8.06596V4.57686H8.55814C8.67063 4.57689 8.7813 4.54901 8.87984 4.4958C8.97838 4.44259 9.0616 4.36579 9.12173 4.27254C9.18187 4.17929 9.21697 4.07264 9.22376 3.96251C9.23056 3.85237 9.20883 3.74235 9.1606 3.64267C9.04047 3.39352 8.98651 3.11863 9.00375 2.84355C9.02098 2.56846 9.10885 2.30212 9.25918 2.06928C9.40951 1.83643 9.61742 1.64465 9.86359 1.51176C10.1098 1.37887 10.3862 1.30919 10.6672 1.30919C10.9482 1.30919 11.2246 1.37887 11.4707 1.51176C11.7169 1.64465 11.9248 1.83643 12.0751 2.06928C12.2255 2.30212 12.3133 2.56846 12.3306 2.84355C12.3478 3.11863 12.2939 3.39352 12.1737 3.64267C12.1255 3.74235 12.1038 3.85237 12.1106 3.96251C12.1174 4.07264 12.1525 4.17929 12.2126 4.27254C12.2727 4.36579 12.3559 4.44259 12.4545 4.4958C12.553 4.54901 12.6637 4.57689 12.7762 4.57686H16.6668V7.21105C16.4836 7.19048 16.299 7.18665 16.1151 7.19961C15.3393 7.2535 14.6151 7.60085 14.0953 8.1684C13.5756 8.73595 13.3009 9.47933 13.3292 10.2417C13.3575 11.0041 13.6866 11.7259 14.2471 12.2548C14.8076 12.7838 15.5557 13.0785 16.3334 13.0769C16.4448 13.0771 16.5561 13.0711 16.6668 13.0589V15.6923Z" fill="#212121"/>
</svg>
