<svg width="26" height="26" viewBox="0 0 26 26" fill="none" xmlns="http://www.w3.org/2000/svg">
<path d="M12.0721 12.1982L12.0708 1.3141C12.0708 1.19208 12.0948 1.07125 12.1415 0.958509C12.1882 0.845772 12.2567 0.743336 12.3429 0.657051C12.4292 0.570766 12.5317 0.502321 12.6444 0.455624C12.7571 0.408926 12.878 0.384891 13 0.384891C13.122 0.384891 13.2429 0.408926 13.3556 0.455624C13.4683 0.502321 13.5708 0.570766 13.6571 0.657051C13.7433 0.743336 13.8118 0.845772 13.8585 0.958509C13.9052 1.07125 13.9292 1.19208 13.9292 1.3141L13.9279 12.1982L24.812 12.1969C25.0584 12.1969 25.2948 12.2948 25.469 12.469C25.6433 12.6433 25.7412 12.8797 25.7412 13.1261C25.7412 13.3725 25.6433 13.6089 25.469 13.7832C25.2948 13.9574 25.0584 14.0553 24.812 14.0553L13.9279 14.054L13.9292 24.9381C13.9292 25.1845 13.8313 25.4209 13.6571 25.5952C13.4828 25.7694 13.2464 25.8673 13 25.8673C12.7536 25.8673 12.5172 25.7694 12.3429 25.5952C12.1687 25.4209 12.0708 25.1845 12.0708 24.9381L12.0721 14.054L1.188 14.0553C0.941559 14.0553 0.705211 13.9574 0.53095 13.7832C0.356689 13.6089 0.25879 13.3725 0.258791 13.1261C0.258791 12.8797 0.356689 12.6433 0.53095 12.469C0.70521 12.2948 0.941559 12.1969 1.188 12.1969L12.0721 12.1982Z" fill="#111111"/>
</svg>
