<svg xml:space="preserve" viewBox="470.88 455.76 140.4 177.12" version="1.1" xmlns:xlink="http://www.w3.org/1999/xlink" xmlns="http://www.w3.org/2000/svg" style="max-height: 500px" width="140.4" height="177.12">
<desc>Created with Fabric.js 5.2.4</desc>
<defs>
</defs>
<g id="e28f4fae-cb9f-4c80-9cb3-192ec7cdebc5" transform="matrix(1 0 0 1 540 540)">
<rect height="1080" width="1080" ry="0" rx="0" y="-540" x="-540" style="stroke: none; stroke-width: 1; stroke-dasharray: none; stroke-linecap: butt; stroke-dashoffset: 0; stroke-linejoin: miter; stroke-miterlimit: 4; fill: rgb(255,255,255); fill-rule: nonzero; opacity: 1; visibility: hidden;"/>
</g>
<g id="84dd4ff6-3253-412e-9606-5827627e8ef5" transform="matrix(1 0 0 1 540 540)">
</g>
<g transform="matrix(1 0 0 1 540 540)">
<g style="">
		<g transform="matrix(1 0 0 1 12.41 -13)">
<path stroke-linecap="round" d="M 25.3189 91.9965 L 50.917 105.665 C 59.8962 98.5148 66.4175 90.8182 72.3231 83.5822 C 100.745 48.7573 97.9484 15.5501 90.807 0.89531 C 55.7653 10.2477 39.1886 38.5967 31.6203 63.2018 C 28.1709 74.4161 25.4439 84.2358 25.3189 91.9965 Z" transform="translate(-60.46, -53.28)" style="stroke: none; stroke-width: 1; stroke-dasharray: none; stroke-linecap: butt; stroke-dashoffset: 0; stroke-linejoin: miter; stroke-miterlimit: 4; fill: rgb(255,213,64); fill-rule: nonzero; opacity: 1;"/>
</g>
		<g transform="matrix(1 0 0 1 -31.99 16.49)">
<path stroke-linecap="round" d="M 25.3189 91.9965 C 25.4439 84.2358 28.1709 74.4161 31.6203 63.2018 L 9.72091 74.7329 L 0.498691 102.313 L 25.3189 91.9965 Z" transform="translate(-16.06, -82.76)" style="stroke: none; stroke-width: 1; stroke-dasharray: none; stroke-linecap: butt; stroke-dashoffset: 0; stroke-linejoin: miter; stroke-miterlimit: 4; fill: rgb(255,213,64); fill-rule: nonzero; opacity: 1;"/>
</g>
		<g transform="matrix(1 0 0 1 14.47 41.35)">
<path stroke-linecap="round" d="M 72.3231 83.5822 C 66.4175 90.8182 59.8962 98.5148 50.917 105.665 L 55.4518 131.656 L 74.1157 109.118 L 72.3231 83.5822 Z" transform="translate(-62.52, -107.62)" style="stroke: none; stroke-width: 1; stroke-dasharray: none; stroke-linecap: butt; stroke-dashoffset: 0; stroke-linejoin: miter; stroke-miterlimit: 4; fill: rgb(255,213,64); fill-rule: nonzero; opacity: 1;"/>
</g>
</g>
</g>
<g id="ad190535-11b5-4587-84d6-90b030e0d7d1" transform="matrix(1 0 0 1 565.13 507.33)">
<circle fill="rgb(255, 255, 255)" r="9.5" cy="0" cx="0" style="stroke: rgb(0,0,0); stroke-width: 0; stroke-dasharray: none; stroke-linecap: butt; stroke-dashoffset: 0; stroke-linejoin: miter; stroke-miterlimit: 4; fill-rule: nonzero; opacity: 1;"/>
</g>
<g transform="matrix(1 0 0 1 524.92 581.04)">
<path stroke-linecap="round" d="M 0 21.8667 L 11.871 0 L 16 2.13333 L 2 27 L 0 21.8667 Z" transform="translate(-8, -13.5)" style="stroke: rgb(0,0,0); stroke-width: 0; stroke-dasharray: none; stroke-linecap: butt; stroke-dashoffset: 0; stroke-linejoin: miter; stroke-miterlimit: 4; fill: rgb(255,213,64); fill-rule: nonzero; opacity: 1;"/>
</g>
</svg>