<svg width="18" height="17" viewBox="0 0 18 17" fill="none" xmlns="http://www.w3.org/2000/svg">
<path id="Vector" d="M12.8645 10.6918H12.0515L11.7633 10.4294C12.8067 9.28636 13.3802 7.82709 13.3791 6.3179C13.3791 5.06834 12.9867 3.84684 12.2517 2.80786C11.5166 1.76889 10.4719 0.95911 9.24951 0.480924C8.02716 0.00273745 6.68212 -0.122378 5.38447 0.121399C4.08683 0.365177 2.89487 0.966898 1.95932 1.85047C1.02377 2.73404 0.386658 3.85979 0.128541 5.08534C-0.129577 6.31089 0.00289847 7.58121 0.509214 8.73565C1.01553 9.89009 1.87294 10.8768 2.97303 11.571C4.07312 12.2653 5.36647 12.6358 6.68954 12.6358C8.34649 12.6358 9.86964 12.0623 11.0429 11.1098L11.3208 11.3819V12.1498L16.4666 17L18 15.5517L12.8645 10.6918ZM6.68954 10.6918C4.12693 10.6918 2.05832 8.73814 2.05832 6.3179C2.05832 3.89766 4.12693 1.94397 6.68954 1.94397C9.25214 1.94397 11.3208 3.89766 11.3208 6.3179C11.3208 8.73814 9.25214 10.6918 6.68954 10.6918Z" fill="#282828" fill-opacity="0.77"/>
</svg>
