<svg width="84" height="21" viewBox="0 0 84 21" fill="none" xmlns="http://www.w3.org/2000/svg">
<g id="Group 184">
<g id="Vector">
<path d="M79 6.947C78.632 7.107 78.237 7.217 77.822 7.265C78.246 7.015 78.57 6.619 78.724 6.148C78.32 6.38347 77.8791 6.54912 77.42 6.638C77.2269 6.43557 76.9945 6.27461 76.7372 6.16492C76.4798 6.05523 76.2028 5.99911 75.923 6C74.79 6 73.872 6.905 73.872 8.02C73.872 8.178 73.89 8.332 73.925 8.48C73.1123 8.44141 72.3166 8.23384 71.5886 7.87055C70.8607 7.50725 70.2164 6.9962 69.697 6.37C69.5146 6.6771 69.4185 7.0278 69.419 7.385C69.419 8.085 69.782 8.705 70.332 9.066C70.0064 9.05579 69.6879 8.96912 69.402 8.813V8.838C69.4051 9.30746 69.5708 9.76134 69.8709 10.1224C70.171 10.4834 70.587 10.7292 71.048 10.818C70.7454 10.898 70.4287 10.9096 70.121 10.852C70.2551 11.2559 70.5117 11.608 70.855 11.8594C71.1984 12.1108 71.6115 12.2491 72.037 12.255C71.307 12.8176 70.4106 13.1215 69.489 13.119C69.324 13.119 69.161 13.109 69 13.091C69.9405 13.6863 71.031 14.0016 72.144 14C75.918 14 77.981 10.922 77.981 8.252L77.974 7.99C78.3763 7.70728 78.7239 7.35389 79 6.947Z" fill="#2B2626"/>
<path d="M68 2C67.4696 2 66.9609 2.21071 66.5858 2.58579C66.2107 2.96086 66 3.46957 66 4V16C66 16.5304 66.2107 17.0391 66.5858 17.4142C66.9609 17.7893 67.4696 18 68 18H80C80.5304 18 81.0391 17.7893 81.4142 17.4142C81.7893 17.0391 82 16.5304 82 16V4C82 3.46957 81.7893 2.96086 81.4142 2.58579C81.0391 2.21071 80.5304 2 80 2H68ZM68 0H80C81.0609 0 82.0783 0.421427 82.8284 1.17157C83.5786 1.92172 84 2.93913 84 4V16C84 17.0609 83.5786 18.0783 82.8284 18.8284C82.0783 19.5786 81.0609 20 80 20H68C66.9391 20 65.9217 19.5786 65.1716 18.8284C64.4214 18.0783 64 17.0609 64 16V4C64 2.93913 64.4214 1.92172 65.1716 1.17157C65.9217 0.421427 66.9391 0 68 0Z" fill="#2B2626"/>
</g>
<path id="Vector_2" d="M46.58 11.9856C46.3294 11.8588 45.1087 11.2631 44.8806 11.1781C44.6525 11.0969 44.4869 11.0544 44.3206 11.305C44.1581 11.5494 43.6794 12.1088 43.5331 12.2719C43.3869 12.435 43.2431 12.4475 42.9963 12.3369C42.7456 12.21 41.945 11.9494 40.9944 11.0969C40.2519 10.4362 39.7575 9.6225 39.6106 9.37187C39.4644 9.12438 39.5944 8.98438 39.7181 8.86063C39.8319 8.74687 39.9688 8.57438 40.0956 8.42438C40.2163 8.27437 40.255 8.17375 40.3431 8.01125C40.4244 7.83562 40.3825 7.69875 40.3206 7.575C40.2587 7.45125 39.7606 6.22438 39.5525 5.73563C39.3537 5.25063 39.1456 5.3125 38.9925 5.3125C38.8494 5.29938 38.6831 5.29938 38.5175 5.29938C38.3519 5.29938 38.0812 5.36125 37.8531 5.59875C37.625 5.84938 36.9806 6.44812 36.9806 7.65938C36.9806 8.87375 37.8725 10.0487 37.9963 10.2244C38.1231 10.3869 39.7506 12.8869 42.2475 13.9612C42.8431 14.2119 43.3056 14.3619 43.6669 14.4856C44.2625 14.6744 44.8062 14.6481 45.2356 14.5862C45.7106 14.5081 46.7069 13.9838 46.9156 13.3981C47.1275 12.8088 47.1275 12.3206 47.0656 12.21C47.0037 12.0962 46.8412 12.0344 46.5906 11.9237L46.58 11.9856ZM42.0387 18.125C40.5606 18.125 39.0994 17.7244 37.8231 16.9756L37.5238 16.7969L34.3988 17.6106L35.2387 14.57L35.0369 14.2575C34.2115 12.9452 33.7737 11.4265 33.7738 9.87625C33.7738 5.33875 37.4881 1.6375 42.0581 1.6375C44.2719 1.6375 46.3488 2.5 47.9113 4.0625C48.682 4.82412 49.2935 5.73161 49.7098 6.73204C50.1262 7.73246 50.3391 8.80578 50.3363 9.88937C50.33 14.4237 46.6187 18.125 42.055 18.125H42.0387ZM49.0994 2.87437C47.1981 1.03813 44.6981 0 42.0387 0C36.5538 0 32.0875 4.44687 32.0844 9.91187C32.0844 11.6569 32.54 13.3594 33.4125 14.8662L32 20L37.28 18.6231C38.7427 19.4117 40.3776 19.8265 42.0394 19.8306H42.0425C47.5306 19.8306 51.9969 15.3837 52 9.915C52 7.26875 50.9681 4.77812 49.0869 2.90625L49.0994 2.87437Z" fill="#2B2626"/>
<path id="Vector_3" d="M10 1C7.28154 1 6.94274 1.01313 5.87886 1.05813C4.8106 1.11064 4.08801 1.27628 3.45043 1.52382C2.78314 1.77573 2.17881 2.17016 1.67958 2.67958C1.16874 3.17765 0.774095 3.78231 0.523815 4.45043C0.276285 5.08801 0.110639 5.8106 0.0581323 6.87886C0.0100013 7.94337 0 8.28154 0 11C0 13.7185 0.0131266 14.0573 0.0581323 15.1211C0.110639 16.1863 0.276285 16.912 0.523815 17.5496C0.775735 18.2169 1.17016 18.8212 1.67958 19.3204C2.17765 19.8313 2.78231 20.2259 3.45043 20.4762C4.08801 20.7206 4.81373 20.8894 5.87886 20.9419C6.94337 20.99 7.28154 21 10 21C12.7185 21 13.0573 20.9869 14.1211 20.9419C15.1863 20.8894 15.912 20.72 16.5496 20.4762C17.2169 20.2243 17.8212 19.8298 18.3204 19.3204C18.8319 18.8229 19.2267 18.2181 19.4762 17.5496C19.7206 16.912 19.8894 16.1863 19.9419 15.1211C19.99 14.0566 20 13.7185 20 11C20 8.28154 19.9869 7.94274 19.9419 6.87886C19.8894 5.81373 19.72 5.08426 19.4762 4.45043C19.2243 3.78314 18.8298 3.17881 18.3204 2.67958C17.8229 2.16808 17.2181 1.77333 16.5496 1.52382C15.912 1.27628 15.1863 1.11064 14.1211 1.05813C13.0566 1.01 12.7185 1 10 1ZM10 2.80023C12.6697 2.80023 12.9885 2.81335 14.0436 2.85836C15.0169 2.90399 15.5469 3.06651 15.8989 3.20403C16.3339 3.36462 16.7277 3.62023 17.0515 3.95224C17.383 4.27468 17.6376 4.66755 17.7966 5.10176C17.9341 5.45368 18.0966 5.98375 18.1423 6.95699C18.1873 8.01213 18.2004 8.33154 18.2004 11.0006C18.2004 13.6697 18.1873 13.9891 18.1385 15.0443C18.086 16.0175 17.9235 16.5476 17.7866 16.8995C17.5972 17.3689 17.3859 17.6971 17.0371 18.0521C16.7122 18.3821 16.3187 18.6364 15.8845 18.7972C15.5369 18.9347 14.9994 19.0973 14.0224 19.1429C12.9616 19.1879 12.6491 19.201 9.9725 19.201C7.29591 19.201 6.984 19.1879 5.92199 19.1391C4.94874 19.0866 4.4118 18.9241 4.05988 18.7872C3.58482 18.5978 3.25916 18.3865 2.91036 18.0378C2.55844 17.6858 2.33467 17.3508 2.16215 16.8851C2.02213 16.5376 1.86211 16 1.81023 15.023C1.7746 13.9747 1.75772 13.6497 1.75772 10.9856C1.75772 8.32279 1.7746 7.99712 1.81023 6.93574C1.86211 5.95875 2.02213 5.42243 2.16215 5.07363C2.33467 4.59795 2.55907 4.27291 2.91036 3.92099C3.25853 3.57282 3.58482 3.34779 4.05988 3.17152C4.4118 3.03463 4.93562 2.87211 5.91261 2.82335C6.97337 2.78522 7.28591 2.77147 9.95875 2.77147L10 2.80023ZM10 5.86748C9.32576 5.86724 8.65807 5.99986 8.0351 6.25777C7.41213 6.51567 6.84609 6.89382 6.36933 7.37058C5.89257 7.84734 5.51442 8.41338 5.25652 9.03635C4.99861 9.65932 4.86599 10.327 4.86623 11.0013C4.86599 11.6755 4.99861 12.3432 5.25652 12.9661C5.51442 13.5891 5.89257 14.1552 6.36933 14.6319C6.84609 15.1087 7.41213 15.4868 8.0351 15.7447C8.65807 16.0026 9.32576 16.1353 10 16.135C10.6742 16.1353 11.3419 16.0026 11.9649 15.7447C12.5879 15.4868 13.1539 15.1087 13.6307 14.6319C14.1074 14.1552 14.4856 13.5891 14.7435 12.9661C15.0014 12.3432 15.134 11.6755 15.1338 11.0013C15.134 10.327 15.0014 9.65932 14.7435 9.03635C14.4856 8.41338 14.1074 7.84734 13.6307 7.37058C13.1539 6.89382 12.5879 6.51567 11.9649 6.25777C11.3419 5.99986 10.6742 5.86724 10 5.86748ZM10 14.3348C8.15727 14.3348 6.66646 12.844 6.66646 11.0013C6.66646 9.15852 8.15727 7.66771 10 7.66771C11.8427 7.66771 13.3335 9.15852 13.3335 11.0013C13.3335 12.844 11.8427 14.3348 10 14.3348ZM16.5408 5.66246C16.5405 5.98104 16.4137 6.28646 16.1883 6.51161C15.9629 6.73676 15.6574 6.86323 15.3388 6.86323C15.1813 6.86323 15.0253 6.83221 14.8798 6.77192C14.7342 6.71164 14.602 6.62329 14.4906 6.5119C14.3792 6.40051 14.2909 6.26828 14.2306 6.12275C14.1703 5.97721 14.1393 5.82123 14.1393 5.66371C14.1393 5.50618 14.1703 5.3502 14.2306 5.20467C14.2909 5.05914 14.3792 4.9269 14.4906 4.81552C14.602 4.70413 14.7342 4.61577 14.8798 4.55549C15.0253 4.49521 15.1813 4.46418 15.3388 4.46418C15.9995 4.46418 16.5408 5.00175 16.5408 5.66246Z" fill="#2B2626"/>
</g>
</svg>
