<svg width="13" height="15" viewBox="0 0 13 15" fill="none" xmlns="http://www.w3.org/2000/svg">
<path d="M12.4583 2.30769H9.75V1.73077C9.75 1.27174 9.5788 0.831513 9.27405 0.506931C8.9693 0.182348 8.55598 0 8.125 0H4.875C4.44402 0 4.0307 0.182348 3.72595 0.506931C3.4212 0.831513 3.25 1.27174 3.25 1.73077V2.30769H0.541667C0.398008 2.30769 0.260233 2.36848 0.158651 2.47667C0.0570684 2.58486 0 2.73161 0 2.88462C0 3.03762 0.0570684 3.18437 0.158651 3.29256C0.260233 3.40076 0.398008 3.46154 0.541667 3.46154H1.08333V13.8462C1.08333 14.1522 1.19747 14.4457 1.40063 14.662C1.6038 14.8784 1.87935 15 2.16667 15H10.8333C11.1207 15 11.3962 14.8784 11.5994 14.662C11.8025 14.4457 11.9167 14.1522 11.9167 13.8462V3.46154H12.4583C12.602 3.46154 12.7398 3.40076 12.8414 3.29256C12.9429 3.18437 13 3.03762 13 2.88462C13 2.73161 12.9429 2.58486 12.8414 2.47667C12.7398 2.36848 12.602 2.30769 12.4583 2.30769ZM4.33333 1.73077C4.33333 1.57776 4.3904 1.43102 4.49198 1.32282C4.59357 1.21463 4.73134 1.15385 4.875 1.15385H8.125C8.26866 1.15385 8.40644 1.21463 8.50802 1.32282C8.6096 1.43102 8.66667 1.57776 8.66667 1.73077V2.30769H4.33333V1.73077ZM10.8333 13.8462H2.16667V3.46154H10.8333V13.8462ZM5.41667 6.34615V10.9615C5.41667 11.1145 5.3596 11.2613 5.25802 11.3695C5.15643 11.4777 5.01866 11.5385 4.875 11.5385C4.73134 11.5385 4.59357 11.4777 4.49198 11.3695C4.3904 11.2613 4.33333 11.1145 4.33333 10.9615V6.34615C4.33333 6.19314 4.3904 6.0464 4.49198 5.93821C4.59357 5.83001 4.73134 5.76923 4.875 5.76923C5.01866 5.76923 5.15643 5.83001 5.25802 5.93821C5.3596 6.0464 5.41667 6.19314 5.41667 6.34615ZM8.66667 6.34615V10.9615C8.66667 11.1145 8.6096 11.2613 8.50802 11.3695C8.40644 11.4777 8.26866 11.5385 8.125 11.5385C7.98134 11.5385 7.84357 11.4777 7.74198 11.3695C7.6404 11.2613 7.58333 11.1145 7.58333 10.9615V6.34615C7.58333 6.19314 7.6404 6.0464 7.74198 5.93821C7.84357 5.83001 7.98134 5.76923 8.125 5.76923C8.26866 5.76923 8.40644 5.83001 8.50802 5.93821C8.6096 6.0464 8.66667 6.19314 8.66667 6.34615Z" fill="#F9F9F9"/>
</svg>
