<svg width="16" height="16" viewBox="0 0 16 16" fill="none" xmlns="http://www.w3.org/2000/svg">
<g clip-path="url(#clip0_1089_12917)">
<path d="M12.062 15.1122H3.93751C3.76648 15.1082 3.59793 15.0705 3.44148 15.0013C3.28502 14.9321 3.14374 14.8327 3.0257 14.7089C2.90765 14.5851 2.81517 14.4392 2.75352 14.2796C2.69186 14.12 2.66226 13.9499 2.6664 13.7789V4.99219H3.55528V13.7789C3.55104 13.8332 3.55758 13.8878 3.57452 13.9396C3.59145 13.9913 3.61846 14.0393 3.65398 14.0806C3.6895 14.1219 3.73284 14.1557 3.78149 14.1802C3.83015 14.2047 3.88317 14.2194 3.93751 14.2233H12.062C12.1163 14.2194 12.1693 14.2047 12.218 14.1802C12.2666 14.1557 12.31 14.1219 12.3455 14.0806C12.381 14.0393 12.408 13.9913 12.4249 13.9396C12.4419 13.8878 12.4484 13.8332 12.4442 13.7789V4.99219H13.3331V13.7789C13.3372 13.9499 13.3076 14.12 13.2459 14.2796C13.1843 14.4392 13.0918 14.5851 12.9738 14.7089C12.8557 14.8327 12.7144 14.9321 12.558 15.0013C12.4015 15.0705 12.233 15.1082 12.062 15.1122Z" fill="#111111"/>
<path d="M13.6796 3.99826H2.22179C2.10391 3.99826 1.99087 3.95144 1.90752 3.86809C1.82417 3.78474 1.77734 3.67169 1.77734 3.55382C1.77734 3.43595 1.82417 3.3229 1.90752 3.23955C1.99087 3.1562 2.10391 3.10937 2.22179 3.10938H13.6796C13.7974 3.10938 13.9105 3.1562 13.9938 3.23955C14.0772 3.3229 14.124 3.43595 14.124 3.55382C14.124 3.67169 14.0772 3.78474 13.9938 3.86809C13.9105 3.95144 13.7974 3.99826 13.6796 3.99826Z" fill="#111111"/>
<path d="M9.33301 5.78125H10.2219V12.4479H9.33301V5.78125Z" fill="#111111"/>
<path d="M5.77734 5.78125H6.66623V12.4479H5.77734V5.78125Z" fill="#111111"/>
<path d="M10.2218 2.60618H9.37734V1.77951H6.62179V2.60618H5.77734V1.77951C5.77706 1.55127 5.86458 1.33166 6.02179 1.16618C6.17899 1.0007 6.39383 0.902037 6.62179 0.890625H9.37734C9.60531 0.902037 9.82014 1.0007 9.97734 1.16618C10.1345 1.33166 10.2221 1.55127 10.2218 1.77951V2.60618Z" fill="#111111"/>
</g>
<defs>
<clipPath id="clip0_1089_12917">
<rect width="16" height="16" fill="white"/>
</clipPath>
</defs>
</svg>
