<svg width="26" height="27" viewBox="0 0 26 27" fill="none" xmlns="http://www.w3.org/2000/svg">
<path d="M9.33606 12.2642H9.34996H9.33606ZM16.2857 12.2642H16.2996H16.2857ZM9.33606 17.3962C9.78901 17.823 10.3297 18.162 10.9263 18.3934C11.523 18.6248 12.1637 18.744 12.8109 18.744C13.4581 18.744 14.0988 18.6248 14.6955 18.3934C15.2922 18.162 15.8328 17.823 16.2857 17.3962" fill="#2F2F2F"/>
<path d="M9.33606 12.2642H9.34996M16.2857 12.2642H16.2996M9.33606 17.3962C9.78901 17.823 10.3297 18.162 10.9263 18.3934C11.523 18.6248 12.1637 18.744 12.8109 18.744C13.4581 18.744 14.0988 18.6248 14.6955 18.3934C15.2922 18.162 15.8328 17.823 16.2857 17.3962M5.86122 4.56604H7.25116V2H18.3707V4.56604H19.7606C20.8665 4.56604 21.9271 4.97156 22.7091 5.6934C23.4911 6.41524 23.9304 7.39426 23.9304 8.41509V19.9623C23.9304 20.9831 23.4911 21.9621 22.7091 22.684C21.9271 23.4058 20.8665 23.8113 19.7606 23.8113V25.0943H5.86122V23.8113C4.75532 23.8113 3.69471 23.4058 2.91272 22.684C2.13072 21.9621 1.69141 20.9831 1.69141 19.9623V8.41509C1.69141 7.39426 2.13072 6.41524 2.91272 5.6934C3.69471 4.97156 4.75532 4.56604 5.86122 4.56604Z" stroke="white" stroke-width="2.56604" stroke-linecap="round" stroke-linejoin="round"/>
</svg>
