<svg width="133" height="38" viewBox="0 0 133 38" fill="none" xmlns="http://www.w3.org/2000/svg">
<path d="M1.952 30V7.28H8.192V24.56H18.496V30H1.952ZM36.8628 24.56V30H20.6708V7.28H36.5748V12.72H26.9108V15.92H35.1667V20.976H26.9108V24.56H36.8628ZM49.2448 30.16C47.7728 30.16 46.3648 29.904 45.0208 29.392C43.6981 28.8587 42.5248 28.0907 41.5008 27.088C40.4768 26.064 39.6661 24.8373 39.0688 23.408C38.4928 21.9573 38.2048 20.304 38.2048 18.448C38.2048 16.848 38.5034 15.3653 39.1008 14C39.6981 12.6347 40.5194 11.44 41.5648 10.416C42.6314 9.37067 43.8688 8.56 45.2768 7.984C46.6848 7.408 48.2101 7.12 49.8528 7.12C51.9008 7.12 53.7568 7.568 55.4208 8.464C57.0848 9.33867 58.3221 10.544 59.1328 12.08L54.4928 15.632C54.0448 14.736 53.3728 14.0213 52.4768 13.488C51.5808 12.9333 50.6314 12.656 49.6288 12.656C48.8821 12.656 48.1994 12.8053 47.5808 13.104C46.9621 13.4027 46.4181 13.8187 45.9488 14.352C45.5008 14.8853 45.1488 15.5253 44.8928 16.272C44.6581 16.9973 44.5408 17.7973 44.5408 18.672C44.5408 19.568 44.6688 20.3787 44.9248 21.104C45.1808 21.8293 45.5328 22.4587 45.9808 22.992C46.4501 23.504 47.0048 23.9093 47.6448 24.208C48.2848 24.4853 48.9994 24.624 49.7888 24.624C50.7914 24.624 51.7514 24.3787 52.6688 23.888C53.5861 23.376 54.4181 22.6613 55.1648 21.744V27.824C53.4581 29.3813 51.4848 30.16 49.2448 30.16ZM54.8448 22.384H50.6528V17.904H59.9968V30H54.8448V22.384ZM90.579 18.448C90.579 17.0613 90.835 15.7067 91.347 14.384C91.8803 13.04 92.6483 11.824 93.651 10.736C94.6537 9.648 95.8697 8.784 97.299 8.144C98.7497 7.48267 100.382 7.152 102.195 7.152C104.371 7.152 106.27 7.61067 107.891 8.528C109.512 9.424 110.718 10.6187 111.507 12.112L106.739 15.504C106.462 14.7573 106.056 14.1813 105.523 13.776C105.011 13.3707 104.446 13.0933 103.827 12.944C103.23 12.7733 102.643 12.688 102.067 12.688C101.171 12.688 100.392 12.8693 99.731 13.232C99.091 13.5733 98.5577 14.032 98.131 14.608C97.7257 15.184 97.4163 15.824 97.203 16.528C97.011 17.232 96.915 17.936 96.915 18.64C96.915 19.4293 97.0323 20.1867 97.267 20.912C97.5017 21.6373 97.843 22.288 98.291 22.864C98.739 23.4187 99.283 23.856 99.923 24.176C100.584 24.496 101.32 24.656 102.131 24.656C102.707 24.656 103.294 24.5707 103.891 24.4C104.488 24.208 105.032 23.9093 105.523 23.504C106.014 23.0987 106.387 22.5547 106.643 21.872L111.731 24.912C111.283 26.0213 110.536 26.9707 109.491 27.76C108.446 28.5493 107.262 29.1573 105.939 29.584C104.616 29.9893 103.304 30.192 102.003 30.192C100.318 30.192 98.771 29.8613 97.363 29.2C95.9763 28.5173 94.771 27.6213 93.747 26.512C92.7443 25.3813 91.9657 24.1227 91.411 22.736C90.8563 21.328 90.579 19.8987 90.579 18.448ZM117.998 7.28L122.062 16.56L126.222 7.28H133.006L125.166 22.48V30H118.958V22.416L111.245 7.28H117.998Z" fill="url(#paint0_linear_68_125)"/>
<path d="M80.8826 29.4816C83.6812 28.6902 86.1779 25.3712 87.0344 21.3038C88.3189 15.2032 86.0475 9.10102 81.6545 6.85123C78.977 5.48015 75.5333 6.3849 73.3672 9.02829C70.4382 12.6029 69.5727 18.6199 71.3107 23.3227C72.3002 26.0003 74.4953 28.4979 76.6402 29.3871C77.611 29.7897 79.6345 29.8347 80.8826 29.4816Z" fill="url(#paint1_linear_68_125)"/>
<path d="M70.6048 10.905C71.198 9.60535 72.9758 7.12665 73.3271 7.10958C73.4135 7.10532 73.8336 6.86575 74.2604 6.57732C75.0364 6.05274 75.0364 6.05275 73.2071 6.05168C72.1773 6.05104 70.8208 6.20612 70.103 6.40665C68.379 6.88792 66.1795 8.74689 65.0956 10.6389C63.6603 13.1443 63.3949 14.3176 63.4073 18.1038C63.4197 21.9237 63.7619 23.1864 65.517 25.8904C67.3225 28.672 69.2398 29.7304 72.4724 29.7304C74.4526 29.7304 74.4526 29.7304 73.2942 28.6104C68.7856 24.2505 67.7188 17.2281 70.6048 10.905Z" fill="url(#paint2_linear_68_125)"/>
<defs>
<linearGradient id="paint0_linear_68_125" x1="117.04" y1="10.5179" x2="30.3646" y2="20.8389" gradientUnits="userSpaceOnUse">
<stop stop-color="#FFD540"/>
<stop offset="0.959831" stop-color="#B81A1A"/>
</linearGradient>
<linearGradient id="paint1_linear_68_125" x1="96.2692" y1="16.1944" x2="59.4642" y2="23.184" gradientUnits="userSpaceOnUse">
<stop stop-color="#FFD540"/>
<stop offset="0.713244" stop-color="#C94824"/>
</linearGradient>
<linearGradient id="paint2_linear_68_125" x1="96.2692" y1="16.1944" x2="59.4642" y2="23.184" gradientUnits="userSpaceOnUse">
<stop stop-color="#FFD540"/>
<stop offset="0.713244" stop-color="#C94824"/>
</linearGradient>
</defs>
</svg>
