<svg width="25" height="24" viewBox="0 0 25 24" fill="none" xmlns="http://www.w3.org/2000/svg">
<path d="M17.8826 23.4816C20.6812 22.6902 23.1779 19.3712 24.0344 15.3038C25.3189 9.20315 23.0475 3.10102 18.6545 0.851227C15.977 -0.519852 12.5333 0.384901 10.3672 3.02829C7.43825 6.60286 6.57273 12.6199 8.31074 17.3227C9.30016 20.0003 11.4953 22.4979 13.6402 23.3871C14.611 23.7897 16.6345 23.8347 17.8826 23.4816Z" fill="url(#paint0_linear_67_1300)"/>
<path d="M7.60483 4.90496C8.19797 3.60535 9.97581 1.12665 10.3271 1.10958C10.4135 1.10532 10.8336 0.865748 11.2604 0.577324C12.0364 0.0527425 12.0364 0.0527457 10.2071 0.0516778C9.1773 0.0510366 7.82083 0.206116 7.10301 0.406648C5.37897 0.887922 3.17948 2.74689 2.09565 4.63892C0.660278 7.14428 0.39488 8.31761 0.407295 12.1038C0.419709 15.9237 0.761933 17.1864 2.51702 19.8904C4.32255 22.672 6.23982 23.7304 9.47244 23.7304C11.4526 23.7304 11.4526 23.7304 10.2942 22.6104C5.7856 18.2505 4.71884 11.2281 7.60483 4.90496Z" fill="url(#paint1_linear_67_1300)"/>
<defs>
<linearGradient id="paint0_linear_67_1300" x1="33.2692" y1="10.1944" x2="-3.53584" y2="17.184" gradientUnits="userSpaceOnUse">
<stop stop-color="#FFD540"/>
<stop offset="0.713244" stop-color="#C94824"/>
</linearGradient>
<linearGradient id="paint1_linear_67_1300" x1="33.2692" y1="10.1944" x2="-3.53584" y2="17.184" gradientUnits="userSpaceOnUse">
<stop stop-color="#FFD540"/>
<stop offset="0.713244" stop-color="#C94824"/>
</linearGradient>
</defs>
</svg>
