<svg width="21" height="17" viewBox="0 0 21 17" fill="none" xmlns="http://www.w3.org/2000/svg">
<path d="M13.615 1.64286V15.3571C13.615 15.9857 13.09 16.5 12.4483 16.5H8.56333C7.92167 16.5 7.39667 15.9857 7.39667 15.3571V1.64286C7.39667 1.01429 7.92167 0.5 8.56333 0.5H12.4483C13.09 0.5 13.615 1.01429 13.615 1.64286ZM15.9483 16.5H19.8333C20.475 16.5 21 15.9857 21 15.3571V1.64286C21 1.01429 20.475 0.5 19.8333 0.5H15.9483C15.3067 0.5 14.7817 1.01429 14.7817 1.64286V15.3571C14.7817 15.9857 15.295 16.5 15.9483 16.5ZM6.21833 15.3571V1.64286C6.21833 1.01429 5.69333 0.5 5.05167 0.5H1.16667C0.525 0.5 0 1.01429 0 1.64286V15.3571C0 15.9857 0.525 16.5 1.16667 16.5H5.05167C5.705 16.5 6.21833 15.9857 6.21833 15.3571Z" fill="#3E3737"/>
</svg>
